<mxfile host="app.diagrams.net" modified="2023-03-28T07:15:17.216Z" agent="Mozilla/5.0 (Windows NT 10.0; Win64; x64) AppleWebKit/537.36 (KHTML, like Gecko) Chrome/111.0.0.0 Safari/537.36" etag="0gBiGaqd17e5nf0LJI5x" version="21.1.1" type="device">
  <diagram name="Page-1" id="pHS4BeULS7g0dOghMUd7">
    <mxGraphModel dx="1628" dy="1888" grid="1" gridSize="10" guides="1" tooltips="1" connect="1" arrows="1" fold="1" page="1" pageScale="1" pageWidth="850" pageHeight="1100" math="0" shadow="0">
      <root>
        <mxCell id="0" />
        <mxCell id="1" parent="0" />
        <mxCell id="oiI1xpTamVSD6dDsBw7b-159" value="" style="rounded=0;whiteSpace=wrap;html=1;dashed=1;fillColor=#f5f5f5;fontColor=#333333;strokeColor=#666666;" vertex="1" parent="1">
          <mxGeometry x="850" y="90" width="500" height="410" as="geometry" />
        </mxCell>
        <mxCell id="oiI1xpTamVSD6dDsBw7b-94" value="" style="rounded=0;whiteSpace=wrap;html=1;fillColor=#f5f5f5;fontColor=#333333;strokeColor=#666666;" vertex="1" parent="1">
          <mxGeometry x="384.5" y="-3.5" width="145" height="265" as="geometry" />
        </mxCell>
        <mxCell id="oiI1xpTamVSD6dDsBw7b-161" style="edgeStyle=orthogonalEdgeStyle;rounded=0;orthogonalLoop=1;jettySize=auto;html=1;" edge="1" parent="1" source="oiI1xpTamVSD6dDsBw7b-52" target="oiI1xpTamVSD6dDsBw7b-159">
          <mxGeometry relative="1" as="geometry" />
        </mxCell>
        <mxCell id="oiI1xpTamVSD6dDsBw7b-52" value="" style="rounded=0;whiteSpace=wrap;html=1;fillColor=#f5f5f5;fontColor=#333333;strokeColor=default;fillStyle=solid;dashed=1;gradientColor=none;" vertex="1" parent="1">
          <mxGeometry x="551.5" y="332.5" width="240" height="260" as="geometry" />
        </mxCell>
        <mxCell id="oiI1xpTamVSD6dDsBw7b-30" value="" style="rounded=0;whiteSpace=wrap;html=1;fillColor=#f5f5f5;fontColor=#333333;strokeColor=#666666;" vertex="1" parent="1">
          <mxGeometry x="393.5" y="5" width="145" height="265" as="geometry" />
        </mxCell>
        <mxCell id="oiI1xpTamVSD6dDsBw7b-14" value="" style="rounded=0;whiteSpace=wrap;html=1;dashed=1;" vertex="1" parent="1">
          <mxGeometry x="20" y="70" width="220" height="370" as="geometry" />
        </mxCell>
        <mxCell id="oiI1xpTamVSD6dDsBw7b-4" value="" style="edgeStyle=orthogonalEdgeStyle;rounded=0;orthogonalLoop=1;jettySize=auto;html=1;" edge="1" parent="1">
          <mxGeometry relative="1" as="geometry">
            <mxPoint x="379" y="165" as="sourcePoint" />
            <mxPoint x="419" y="85" as="targetPoint" />
          </mxGeometry>
        </mxCell>
        <mxCell id="oiI1xpTamVSD6dDsBw7b-16" style="edgeStyle=orthogonalEdgeStyle;rounded=0;orthogonalLoop=1;jettySize=auto;html=1;" edge="1" parent="1" source="oiI1xpTamVSD6dDsBw7b-10" target="oiI1xpTamVSD6dDsBw7b-1">
          <mxGeometry relative="1" as="geometry" />
        </mxCell>
        <mxCell id="oiI1xpTamVSD6dDsBw7b-26" style="edgeStyle=orthogonalEdgeStyle;rounded=0;orthogonalLoop=1;jettySize=auto;html=1;entryX=0;entryY=0.5;entryDx=0;entryDy=0;" edge="1" parent="1" source="oiI1xpTamVSD6dDsBw7b-1" target="oiI1xpTamVSD6dDsBw7b-23">
          <mxGeometry relative="1" as="geometry" />
        </mxCell>
        <mxCell id="oiI1xpTamVSD6dDsBw7b-27" style="edgeStyle=orthogonalEdgeStyle;rounded=0;orthogonalLoop=1;jettySize=auto;html=1;entryX=0;entryY=0.5;entryDx=0;entryDy=0;" edge="1" parent="1" source="oiI1xpTamVSD6dDsBw7b-1" target="oiI1xpTamVSD6dDsBw7b-22">
          <mxGeometry relative="1" as="geometry" />
        </mxCell>
        <mxCell id="oiI1xpTamVSD6dDsBw7b-28" style="edgeStyle=orthogonalEdgeStyle;rounded=0;orthogonalLoop=1;jettySize=auto;html=1;entryX=0;entryY=0.5;entryDx=0;entryDy=0;" edge="1" parent="1" source="oiI1xpTamVSD6dDsBw7b-1" target="oiI1xpTamVSD6dDsBw7b-24">
          <mxGeometry relative="1" as="geometry" />
        </mxCell>
        <mxCell id="oiI1xpTamVSD6dDsBw7b-1" value="Sentence / Words&lt;br&gt;[Kingdom]" style="rounded=0;whiteSpace=wrap;html=1;" vertex="1" parent="1">
          <mxGeometry x="250" y="70" width="90" height="190" as="geometry" />
        </mxCell>
        <mxCell id="oiI1xpTamVSD6dDsBw7b-3" value="x1&lt;br&gt;[&amp;lt;kin]" style="whiteSpace=wrap;html=1;rounded=0;" vertex="1" parent="1">
          <mxGeometry x="421" y="70" width="80" height="30" as="geometry" />
        </mxCell>
        <mxCell id="oiI1xpTamVSD6dDsBw7b-5" value="Bag of words(BoW)" style="text;html=1;align=center;verticalAlign=middle;resizable=0;points=[];autosize=1;strokeColor=none;fillColor=none;" vertex="1" parent="1">
          <mxGeometry x="406" y="30" width="130" height="30" as="geometry" />
        </mxCell>
        <mxCell id="oiI1xpTamVSD6dDsBw7b-6" value="Data -&amp;nbsp;" style="rounded=0;whiteSpace=wrap;html=1;" vertex="1" parent="1">
          <mxGeometry x="50" y="130" width="120" height="140" as="geometry" />
        </mxCell>
        <mxCell id="oiI1xpTamVSD6dDsBw7b-7" value="" style="rounded=0;whiteSpace=wrap;html=1;" vertex="1" parent="1">
          <mxGeometry x="50" y="330" width="120" height="60" as="geometry" />
        </mxCell>
        <mxCell id="oiI1xpTamVSD6dDsBw7b-8" value="Data -&amp;nbsp;" style="rounded=0;whiteSpace=wrap;html=1;" vertex="1" parent="1">
          <mxGeometry x="60" y="140" width="120" height="140" as="geometry" />
        </mxCell>
        <mxCell id="oiI1xpTamVSD6dDsBw7b-9" value="Data -&amp;nbsp;" style="rounded=0;whiteSpace=wrap;html=1;" vertex="1" parent="1">
          <mxGeometry x="70" y="150" width="120" height="140" as="geometry" />
        </mxCell>
        <mxCell id="oiI1xpTamVSD6dDsBw7b-10" value="Data - Sentences&lt;br&gt;(X - train)" style="rounded=0;whiteSpace=wrap;html=1;" vertex="1" parent="1">
          <mxGeometry x="80" y="160" width="120" height="140" as="geometry" />
        </mxCell>
        <mxCell id="oiI1xpTamVSD6dDsBw7b-11" value="" style="rounded=0;whiteSpace=wrap;html=1;" vertex="1" parent="1">
          <mxGeometry x="60" y="340" width="120" height="60" as="geometry" />
        </mxCell>
        <mxCell id="oiI1xpTamVSD6dDsBw7b-12" value="" style="rounded=0;whiteSpace=wrap;html=1;" vertex="1" parent="1">
          <mxGeometry x="70" y="350" width="120" height="60" as="geometry" />
        </mxCell>
        <mxCell id="oiI1xpTamVSD6dDsBw7b-13" value="Data - Lables&lt;br&gt;(Y - train)" style="rounded=0;whiteSpace=wrap;html=1;" vertex="1" parent="1">
          <mxGeometry x="80" y="360" width="120" height="60" as="geometry" />
        </mxCell>
        <mxCell id="oiI1xpTamVSD6dDsBw7b-25" style="edgeStyle=orthogonalEdgeStyle;rounded=0;orthogonalLoop=1;jettySize=auto;html=1;entryX=0.5;entryY=0;entryDx=0;entryDy=0;shape=link;dashed=1;" edge="1" parent="1" source="oiI1xpTamVSD6dDsBw7b-22" target="oiI1xpTamVSD6dDsBw7b-24">
          <mxGeometry relative="1" as="geometry" />
        </mxCell>
        <mxCell id="oiI1xpTamVSD6dDsBw7b-22" value="x3&lt;br&gt;[ingd]" style="whiteSpace=wrap;html=1;rounded=0;" vertex="1" parent="1">
          <mxGeometry x="421" y="150" width="80" height="30" as="geometry" />
        </mxCell>
        <mxCell id="oiI1xpTamVSD6dDsBw7b-23" value="x2&lt;br&gt;[king]" style="whiteSpace=wrap;html=1;rounded=0;" vertex="1" parent="1">
          <mxGeometry x="421" y="110" width="80" height="30" as="geometry" />
        </mxCell>
        <mxCell id="oiI1xpTamVSD6dDsBw7b-24" value="xn&lt;br&gt;[dom&amp;gt;]" style="whiteSpace=wrap;html=1;rounded=0;" vertex="1" parent="1">
          <mxGeometry x="421" y="230" width="80" height="30" as="geometry" />
        </mxCell>
        <mxCell id="oiI1xpTamVSD6dDsBw7b-35" value="" style="edgeStyle=orthogonalEdgeStyle;rounded=0;orthogonalLoop=1;jettySize=auto;html=1;" edge="1" parent="1" source="oiI1xpTamVSD6dDsBw7b-32" target="oiI1xpTamVSD6dDsBw7b-34">
          <mxGeometry relative="1" as="geometry" />
        </mxCell>
        <mxCell id="oiI1xpTamVSD6dDsBw7b-37" value="" style="edgeStyle=orthogonalEdgeStyle;rounded=0;orthogonalLoop=1;jettySize=auto;html=1;" edge="1" parent="1" source="oiI1xpTamVSD6dDsBw7b-32" target="oiI1xpTamVSD6dDsBw7b-34">
          <mxGeometry relative="1" as="geometry" />
        </mxCell>
        <mxCell id="oiI1xpTamVSD6dDsBw7b-38" value="" style="edgeStyle=orthogonalEdgeStyle;rounded=0;orthogonalLoop=1;jettySize=auto;html=1;" edge="1" parent="1" source="oiI1xpTamVSD6dDsBw7b-32" target="oiI1xpTamVSD6dDsBw7b-34">
          <mxGeometry relative="1" as="geometry" />
        </mxCell>
        <mxCell id="oiI1xpTamVSD6dDsBw7b-39" value="" style="edgeStyle=orthogonalEdgeStyle;rounded=0;orthogonalLoop=1;jettySize=auto;html=1;" edge="1" parent="1" source="oiI1xpTamVSD6dDsBw7b-32" target="oiI1xpTamVSD6dDsBw7b-34">
          <mxGeometry relative="1" as="geometry" />
        </mxCell>
        <mxCell id="oiI1xpTamVSD6dDsBw7b-42" style="edgeStyle=orthogonalEdgeStyle;rounded=0;orthogonalLoop=1;jettySize=auto;html=1;entryX=0.5;entryY=0;entryDx=0;entryDy=0;" edge="1" parent="1" source="oiI1xpTamVSD6dDsBw7b-32" target="oiI1xpTamVSD6dDsBw7b-41">
          <mxGeometry relative="1" as="geometry" />
        </mxCell>
        <mxCell id="oiI1xpTamVSD6dDsBw7b-32" value="Node 0" style="whiteSpace=wrap;html=1;rounded=0;" vertex="1" parent="1">
          <mxGeometry x="608.5" y="382.5" width="65" height="30" as="geometry" />
        </mxCell>
        <mxCell id="oiI1xpTamVSD6dDsBw7b-34" value="Leaf w1: Travel" style="whiteSpace=wrap;html=1;rounded=0;" vertex="1" parent="1">
          <mxGeometry x="568.5" y="452.5" width="65" height="40" as="geometry" />
        </mxCell>
        <mxCell id="oiI1xpTamVSD6dDsBw7b-48" style="edgeStyle=orthogonalEdgeStyle;rounded=0;orthogonalLoop=1;jettySize=auto;html=1;entryX=0.5;entryY=0;entryDx=0;entryDy=0;" edge="1" parent="1" source="oiI1xpTamVSD6dDsBw7b-41" target="oiI1xpTamVSD6dDsBw7b-46">
          <mxGeometry relative="1" as="geometry" />
        </mxCell>
        <mxCell id="oiI1xpTamVSD6dDsBw7b-49" style="edgeStyle=orthogonalEdgeStyle;rounded=0;orthogonalLoop=1;jettySize=auto;html=1;entryX=0.5;entryY=0;entryDx=0;entryDy=0;" edge="1" parent="1" source="oiI1xpTamVSD6dDsBw7b-41" target="oiI1xpTamVSD6dDsBw7b-47">
          <mxGeometry relative="1" as="geometry" />
        </mxCell>
        <mxCell id="oiI1xpTamVSD6dDsBw7b-41" value="Node 1" style="whiteSpace=wrap;html=1;rounded=0;" vertex="1" parent="1">
          <mxGeometry x="648.5" y="452.5" width="65" height="40" as="geometry" />
        </mxCell>
        <mxCell id="oiI1xpTamVSD6dDsBw7b-46" value="Leaf w2: Food" style="whiteSpace=wrap;html=1;rounded=0;" vertex="1" parent="1">
          <mxGeometry x="606" y="532.5" width="67.5" height="50" as="geometry" />
        </mxCell>
        <mxCell id="oiI1xpTamVSD6dDsBw7b-47" value="Leaf w3: Indain Cuisine" style="whiteSpace=wrap;html=1;rounded=0;" vertex="1" parent="1">
          <mxGeometry x="698.5" y="532.5" width="77.5" height="50" as="geometry" />
        </mxCell>
        <mxCell id="oiI1xpTamVSD6dDsBw7b-50" value="DataSet" style="text;html=1;strokeColor=none;fillColor=none;align=center;verticalAlign=middle;whiteSpace=wrap;rounded=0;" vertex="1" parent="1">
          <mxGeometry x="100" y="80" width="60" height="30" as="geometry" />
        </mxCell>
        <mxCell id="oiI1xpTamVSD6dDsBw7b-53" value="" style="edgeStyle=orthogonalEdgeStyle;rounded=0;orthogonalLoop=1;jettySize=auto;html=1;" edge="1" parent="1" source="oiI1xpTamVSD6dDsBw7b-13" target="oiI1xpTamVSD6dDsBw7b-32">
          <mxGeometry relative="1" as="geometry">
            <mxPoint x="200" y="370" as="sourcePoint" />
            <mxPoint x="363" y="365" as="targetPoint" />
          </mxGeometry>
        </mxCell>
        <mxCell id="oiI1xpTamVSD6dDsBw7b-55" value="Huffman algorithm based label ordering" style="text;html=1;strokeColor=none;fillColor=none;align=center;verticalAlign=middle;whiteSpace=wrap;rounded=0;" vertex="1" parent="1">
          <mxGeometry x="601.5" y="342.5" width="135" height="30" as="geometry" />
        </mxCell>
        <mxCell id="oiI1xpTamVSD6dDsBw7b-57" value="" style="rounded=0;whiteSpace=wrap;html=1;fillColor=#f5f5f5;fontColor=#333333;strokeColor=#666666;" vertex="1" parent="1">
          <mxGeometry x="399.5" y="15" width="145" height="265" as="geometry" />
        </mxCell>
        <mxCell id="oiI1xpTamVSD6dDsBw7b-58" value="x1&lt;br&gt;[&amp;lt;kin]" style="whiteSpace=wrap;html=1;rounded=0;" vertex="1" parent="1">
          <mxGeometry x="431" y="80" width="80" height="30" as="geometry" />
        </mxCell>
        <mxCell id="oiI1xpTamVSD6dDsBw7b-59" value="Bag of words(BoW)" style="text;html=1;align=center;verticalAlign=middle;resizable=0;points=[];autosize=1;strokeColor=none;fillColor=none;" vertex="1" parent="1">
          <mxGeometry x="416" y="40" width="130" height="30" as="geometry" />
        </mxCell>
        <mxCell id="oiI1xpTamVSD6dDsBw7b-60" style="edgeStyle=orthogonalEdgeStyle;rounded=0;orthogonalLoop=1;jettySize=auto;html=1;entryX=0.5;entryY=0;entryDx=0;entryDy=0;shape=link;dashed=1;" edge="1" parent="1" source="oiI1xpTamVSD6dDsBw7b-61" target="oiI1xpTamVSD6dDsBw7b-63">
          <mxGeometry relative="1" as="geometry" />
        </mxCell>
        <mxCell id="oiI1xpTamVSD6dDsBw7b-61" value="x3&lt;br&gt;[ingd]" style="whiteSpace=wrap;html=1;rounded=0;" vertex="1" parent="1">
          <mxGeometry x="431" y="160" width="80" height="30" as="geometry" />
        </mxCell>
        <mxCell id="oiI1xpTamVSD6dDsBw7b-62" value="x2&lt;br&gt;[king]" style="whiteSpace=wrap;html=1;rounded=0;" vertex="1" parent="1">
          <mxGeometry x="431" y="120" width="80" height="30" as="geometry" />
        </mxCell>
        <mxCell id="oiI1xpTamVSD6dDsBw7b-63" value="xn&lt;br&gt;[dom&amp;gt;]" style="whiteSpace=wrap;html=1;rounded=0;" vertex="1" parent="1">
          <mxGeometry x="431" y="240" width="80" height="30" as="geometry" />
        </mxCell>
        <mxCell id="oiI1xpTamVSD6dDsBw7b-100" style="edgeStyle=orthogonalEdgeStyle;rounded=0;orthogonalLoop=1;jettySize=auto;html=1;" edge="1" parent="1" source="oiI1xpTamVSD6dDsBw7b-65" target="oiI1xpTamVSD6dDsBw7b-92">
          <mxGeometry relative="1" as="geometry">
            <Array as="points">
              <mxPoint x="590" y="170" />
              <mxPoint x="590" y="170" />
            </Array>
          </mxGeometry>
        </mxCell>
        <mxCell id="oiI1xpTamVSD6dDsBw7b-65" value="" style="rounded=0;whiteSpace=wrap;html=1;fillColor=#f5f5f5;fontColor=#333333;strokeColor=#666666;" vertex="1" parent="1">
          <mxGeometry x="406.5" y="25" width="145" height="265" as="geometry" />
        </mxCell>
        <mxCell id="oiI1xpTamVSD6dDsBw7b-66" value="x1&lt;br&gt;[&amp;lt;kin]" style="whiteSpace=wrap;html=1;rounded=0;" vertex="1" parent="1">
          <mxGeometry x="441" y="90" width="80" height="30" as="geometry" />
        </mxCell>
        <mxCell id="oiI1xpTamVSD6dDsBw7b-67" value="Bag of words(BoW)&lt;br&gt;[n = 3]" style="text;html=1;align=center;verticalAlign=middle;resizable=0;points=[];autosize=1;strokeColor=none;fillColor=none;" vertex="1" parent="1">
          <mxGeometry x="414" y="36" width="130" height="40" as="geometry" />
        </mxCell>
        <mxCell id="oiI1xpTamVSD6dDsBw7b-68" style="edgeStyle=orthogonalEdgeStyle;rounded=0;orthogonalLoop=1;jettySize=auto;html=1;entryX=0.5;entryY=0;entryDx=0;entryDy=0;shape=link;dashed=1;" edge="1" parent="1" source="oiI1xpTamVSD6dDsBw7b-69" target="oiI1xpTamVSD6dDsBw7b-71">
          <mxGeometry relative="1" as="geometry" />
        </mxCell>
        <mxCell id="oiI1xpTamVSD6dDsBw7b-69" value="x3&lt;br&gt;[ingd]" style="whiteSpace=wrap;html=1;rounded=0;" vertex="1" parent="1">
          <mxGeometry x="441" y="170" width="80" height="30" as="geometry" />
        </mxCell>
        <mxCell id="oiI1xpTamVSD6dDsBw7b-70" value="x2&lt;br&gt;[king]" style="whiteSpace=wrap;html=1;rounded=0;" vertex="1" parent="1">
          <mxGeometry x="441" y="130" width="80" height="30" as="geometry" />
        </mxCell>
        <mxCell id="oiI1xpTamVSD6dDsBw7b-71" value="xn&lt;br&gt;[dom&amp;gt;]" style="whiteSpace=wrap;html=1;rounded=0;" vertex="1" parent="1">
          <mxGeometry x="441" y="250" width="80" height="30" as="geometry" />
        </mxCell>
        <mxCell id="oiI1xpTamVSD6dDsBw7b-73" value="" style="endArrow=none;dashed=1;html=1;rounded=0;entryX=0.25;entryY=1;entryDx=0;entryDy=0;" edge="1" parent="1">
          <mxGeometry width="50" height="50" relative="1" as="geometry">
            <mxPoint x="111" y="330" as="sourcePoint" />
            <mxPoint x="111" y="300.0000000000001" as="targetPoint" />
          </mxGeometry>
        </mxCell>
        <mxCell id="oiI1xpTamVSD6dDsBw7b-74" value="Character n-grams for words" style="text;html=1;align=center;verticalAlign=middle;resizable=0;points=[];autosize=1;strokeColor=none;fillColor=none;" vertex="1" parent="1">
          <mxGeometry x="378" y="-30" width="180" height="30" as="geometry" />
        </mxCell>
        <mxCell id="oiI1xpTamVSD6dDsBw7b-77" value="" style="endArrow=classic;html=1;rounded=0;dashed=1;" edge="1" parent="1">
          <mxGeometry width="50" height="50" relative="1" as="geometry">
            <mxPoint x="539.5" y="8" as="sourcePoint" />
            <mxPoint x="592" y="8" as="targetPoint" />
          </mxGeometry>
        </mxCell>
        <mxCell id="oiI1xpTamVSD6dDsBw7b-78" value="&lt;span style=&quot;color: rgb(0, 0, 0); font-family: Helvetica; font-size: 12px; font-style: normal; font-variant-ligatures: normal; font-variant-caps: normal; font-weight: 400; letter-spacing: normal; orphans: 2; text-align: center; text-indent: 0px; text-transform: none; widows: 2; word-spacing: 0px; -webkit-text-stroke-width: 0px; background-color: rgb(251, 251, 251); text-decoration-thickness: initial; text-decoration-style: initial; text-decoration-color: initial; float: none; display: inline !important;&quot;&gt;[n = 5]&lt;/span&gt;" style="text;whiteSpace=wrap;html=1;" vertex="1" parent="1">
          <mxGeometry x="592" y="-7" width="40" height="20" as="geometry" />
        </mxCell>
        <mxCell id="oiI1xpTamVSD6dDsBw7b-82" value="" style="endArrow=classic;html=1;rounded=0;dashed=1;" edge="1" parent="1">
          <mxGeometry width="50" height="50" relative="1" as="geometry">
            <mxPoint x="544" y="23" as="sourcePoint" />
            <mxPoint x="596.5" y="23" as="targetPoint" />
          </mxGeometry>
        </mxCell>
        <mxCell id="oiI1xpTamVSD6dDsBw7b-83" value="&lt;span style=&quot;color: rgb(0, 0, 0); font-family: Helvetica; font-size: 12px; font-style: normal; font-variant-ligatures: normal; font-variant-caps: normal; font-weight: 400; letter-spacing: normal; orphans: 2; text-align: center; text-indent: 0px; text-transform: none; widows: 2; word-spacing: 0px; -webkit-text-stroke-width: 0px; background-color: rgb(251, 251, 251); text-decoration-thickness: initial; text-decoration-style: initial; text-decoration-color: initial; float: none; display: inline !important;&quot;&gt;[n = 4]&lt;/span&gt;" style="text;whiteSpace=wrap;html=1;" vertex="1" parent="1">
          <mxGeometry x="596.5" y="8" width="40" height="20" as="geometry" />
        </mxCell>
        <mxCell id="oiI1xpTamVSD6dDsBw7b-87" value="Sentence / Words&lt;br&gt;[Kingdom]" style="rounded=0;whiteSpace=wrap;html=1;" vertex="1" parent="1">
          <mxGeometry x="260" y="80" width="90" height="190" as="geometry" />
        </mxCell>
        <mxCell id="oiI1xpTamVSD6dDsBw7b-88" value="Sentence / Words&lt;br&gt;[Kingdom]" style="rounded=0;whiteSpace=wrap;html=1;" vertex="1" parent="1">
          <mxGeometry x="270" y="90" width="90" height="190" as="geometry" />
        </mxCell>
        <mxCell id="oiI1xpTamVSD6dDsBw7b-90" value="" style="rounded=0;whiteSpace=wrap;html=1;fillColor=#f5f5f5;fontColor=#333333;strokeColor=#666666;" vertex="1" parent="1">
          <mxGeometry x="636.5" y="17.5" width="145" height="265" as="geometry" />
        </mxCell>
        <mxCell id="oiI1xpTamVSD6dDsBw7b-91" value="" style="rounded=0;whiteSpace=wrap;html=1;fillColor=#f5f5f5;fontColor=#333333;strokeColor=#666666;" vertex="1" parent="1">
          <mxGeometry x="646.5" y="27.5" width="145" height="265" as="geometry" />
        </mxCell>
        <mxCell id="oiI1xpTamVSD6dDsBw7b-160" style="edgeStyle=orthogonalEdgeStyle;rounded=0;orthogonalLoop=1;jettySize=auto;html=1;" edge="1" parent="1" source="oiI1xpTamVSD6dDsBw7b-92" target="oiI1xpTamVSD6dDsBw7b-159">
          <mxGeometry relative="1" as="geometry">
            <Array as="points">
              <mxPoint x="820" y="170" />
              <mxPoint x="820" y="295" />
            </Array>
          </mxGeometry>
        </mxCell>
        <mxCell id="oiI1xpTamVSD6dDsBw7b-92" value="" style="rounded=0;whiteSpace=wrap;html=1;fillColor=#f5f5f5;fontColor=#333333;strokeColor=#666666;" vertex="1" parent="1">
          <mxGeometry x="656.5" y="37.5" width="145" height="265" as="geometry" />
        </mxCell>
        <mxCell id="oiI1xpTamVSD6dDsBw7b-95" value="&lt;span style=&quot;color: rgb(0, 0, 0); font-family: Helvetica; font-size: 12px; font-style: normal; font-variant-ligatures: normal; font-variant-caps: normal; font-weight: 400; letter-spacing: normal; orphans: 2; text-align: center; text-indent: 0px; text-transform: none; widows: 2; word-spacing: 0px; -webkit-text-stroke-width: 0px; background-color: rgb(251, 251, 251); text-decoration-thickness: initial; text-decoration-style: initial; text-decoration-color: initial; float: none; display: inline !important;&quot;&gt;Hashing - learning based on total k embeddings&lt;/span&gt;" style="text;whiteSpace=wrap;html=1;" vertex="1" parent="1">
          <mxGeometry x="653" y="-30" width="148.5" height="40" as="geometry" />
        </mxCell>
        <mxCell id="oiI1xpTamVSD6dDsBw7b-96" value="1 - n" style="text;html=1;align=center;verticalAlign=middle;resizable=0;points=[];autosize=1;strokeColor=none;fillColor=none;" vertex="1" parent="1">
          <mxGeometry x="446" y="287.5" width="50" height="30" as="geometry" />
        </mxCell>
        <mxCell id="oiI1xpTamVSD6dDsBw7b-97" value="1 - k" style="text;html=1;align=center;verticalAlign=middle;resizable=0;points=[];autosize=1;strokeColor=none;fillColor=none;" vertex="1" parent="1">
          <mxGeometry x="703.25" y="302.5" width="50" height="30" as="geometry" />
        </mxCell>
        <mxCell id="oiI1xpTamVSD6dDsBw7b-101" value="k1&lt;br&gt;[kin, king, kingdom....]" style="rounded=1;whiteSpace=wrap;html=1;" vertex="1" parent="1">
          <mxGeometry x="667.25" y="55" width="120" height="35" as="geometry" />
        </mxCell>
        <mxCell id="oiI1xpTamVSD6dDsBw7b-105" style="edgeStyle=orthogonalEdgeStyle;rounded=0;orthogonalLoop=1;jettySize=auto;html=1;dashed=1;shape=link;" edge="1" parent="1" source="oiI1xpTamVSD6dDsBw7b-102" target="oiI1xpTamVSD6dDsBw7b-104">
          <mxGeometry relative="1" as="geometry" />
        </mxCell>
        <mxCell id="oiI1xpTamVSD6dDsBw7b-102" value="k2&lt;br&gt;[eating, eat, ate........]" style="rounded=1;whiteSpace=wrap;html=1;" vertex="1" parent="1">
          <mxGeometry x="667.25" y="105" width="120" height="35" as="geometry" />
        </mxCell>
        <mxCell id="oiI1xpTamVSD6dDsBw7b-104" value="k&lt;br&gt;[slept, sleep,.......]" style="rounded=1;whiteSpace=wrap;html=1;" vertex="1" parent="1">
          <mxGeometry x="667.25" y="252.5" width="120" height="35" as="geometry" />
        </mxCell>
        <mxCell id="oiI1xpTamVSD6dDsBw7b-106" value="&lt;i&gt;&lt;font style=&quot;font-size: 10px;&quot;&gt;more frequent label&lt;br&gt;lesser depth&lt;br&gt;&lt;/font&gt;&lt;/i&gt;" style="text;html=1;align=center;verticalAlign=middle;resizable=0;points=[];autosize=1;strokeColor=none;fillColor=none;" vertex="1" parent="1">
          <mxGeometry x="673.5" y="377.5" width="110" height="40" as="geometry" />
        </mxCell>
        <mxCell id="oiI1xpTamVSD6dDsBw7b-123" style="rounded=0;orthogonalLoop=1;jettySize=auto;html=1;entryX=0;entryY=0.5;entryDx=0;entryDy=0;" edge="1" parent="1" source="oiI1xpTamVSD6dDsBw7b-107" target="oiI1xpTamVSD6dDsBw7b-116">
          <mxGeometry relative="1" as="geometry" />
        </mxCell>
        <mxCell id="oiI1xpTamVSD6dDsBw7b-125" style="rounded=0;orthogonalLoop=1;jettySize=auto;html=1;" edge="1" parent="1" source="oiI1xpTamVSD6dDsBw7b-107" target="oiI1xpTamVSD6dDsBw7b-113">
          <mxGeometry relative="1" as="geometry" />
        </mxCell>
        <mxCell id="oiI1xpTamVSD6dDsBw7b-126" style="rounded=0;orthogonalLoop=1;jettySize=auto;html=1;entryX=0;entryY=0.5;entryDx=0;entryDy=0;" edge="1" parent="1" source="oiI1xpTamVSD6dDsBw7b-107" target="oiI1xpTamVSD6dDsBw7b-115">
          <mxGeometry relative="1" as="geometry" />
        </mxCell>
        <mxCell id="oiI1xpTamVSD6dDsBw7b-107" value="k1" style="ellipse;whiteSpace=wrap;html=1;aspect=fixed;" vertex="1" parent="1">
          <mxGeometry x="880" y="142.5" width="50" height="50" as="geometry" />
        </mxCell>
        <mxCell id="oiI1xpTamVSD6dDsBw7b-127" style="rounded=0;orthogonalLoop=1;jettySize=auto;html=1;entryX=0;entryY=0.5;entryDx=0;entryDy=0;" edge="1" parent="1" source="oiI1xpTamVSD6dDsBw7b-110" target="oiI1xpTamVSD6dDsBw7b-113">
          <mxGeometry relative="1" as="geometry" />
        </mxCell>
        <mxCell id="oiI1xpTamVSD6dDsBw7b-128" style="rounded=0;orthogonalLoop=1;jettySize=auto;html=1;entryX=0;entryY=0.5;entryDx=0;entryDy=0;" edge="1" parent="1" source="oiI1xpTamVSD6dDsBw7b-110" target="oiI1xpTamVSD6dDsBw7b-115">
          <mxGeometry relative="1" as="geometry" />
        </mxCell>
        <mxCell id="oiI1xpTamVSD6dDsBw7b-129" style="rounded=0;orthogonalLoop=1;jettySize=auto;html=1;entryX=0;entryY=0.5;entryDx=0;entryDy=0;" edge="1" parent="1" source="oiI1xpTamVSD6dDsBw7b-110" target="oiI1xpTamVSD6dDsBw7b-116">
          <mxGeometry relative="1" as="geometry" />
        </mxCell>
        <mxCell id="oiI1xpTamVSD6dDsBw7b-110" value="k2" style="ellipse;whiteSpace=wrap;html=1;aspect=fixed;" vertex="1" parent="1">
          <mxGeometry x="880" y="202.5" width="50" height="50" as="geometry" />
        </mxCell>
        <mxCell id="oiI1xpTamVSD6dDsBw7b-130" style="rounded=0;orthogonalLoop=1;jettySize=auto;html=1;entryX=0;entryY=0.5;entryDx=0;entryDy=0;" edge="1" parent="1" source="oiI1xpTamVSD6dDsBw7b-111" target="oiI1xpTamVSD6dDsBw7b-113">
          <mxGeometry relative="1" as="geometry" />
        </mxCell>
        <mxCell id="oiI1xpTamVSD6dDsBw7b-131" style="rounded=0;orthogonalLoop=1;jettySize=auto;html=1;entryX=0;entryY=0.5;entryDx=0;entryDy=0;" edge="1" parent="1" source="oiI1xpTamVSD6dDsBw7b-111" target="oiI1xpTamVSD6dDsBw7b-115">
          <mxGeometry relative="1" as="geometry" />
        </mxCell>
        <mxCell id="oiI1xpTamVSD6dDsBw7b-132" style="rounded=0;orthogonalLoop=1;jettySize=auto;html=1;entryX=0;entryY=0.5;entryDx=0;entryDy=0;" edge="1" parent="1" source="oiI1xpTamVSD6dDsBw7b-111" target="oiI1xpTamVSD6dDsBw7b-116">
          <mxGeometry relative="1" as="geometry" />
        </mxCell>
        <mxCell id="oiI1xpTamVSD6dDsBw7b-136" style="edgeStyle=orthogonalEdgeStyle;rounded=0;orthogonalLoop=1;jettySize=auto;html=1;entryX=0.5;entryY=0;entryDx=0;entryDy=0;endArrow=none;endFill=0;dashed=1;" edge="1" parent="1" source="oiI1xpTamVSD6dDsBw7b-111" target="oiI1xpTamVSD6dDsBw7b-112">
          <mxGeometry relative="1" as="geometry" />
        </mxCell>
        <mxCell id="oiI1xpTamVSD6dDsBw7b-111" value="k3" style="ellipse;whiteSpace=wrap;html=1;aspect=fixed;" vertex="1" parent="1">
          <mxGeometry x="880" y="272.5" width="50" height="50" as="geometry" />
        </mxCell>
        <mxCell id="oiI1xpTamVSD6dDsBw7b-133" style="rounded=0;orthogonalLoop=1;jettySize=auto;html=1;entryX=0;entryY=0.5;entryDx=0;entryDy=0;" edge="1" parent="1" source="oiI1xpTamVSD6dDsBw7b-112" target="oiI1xpTamVSD6dDsBw7b-113">
          <mxGeometry relative="1" as="geometry" />
        </mxCell>
        <mxCell id="oiI1xpTamVSD6dDsBw7b-134" style="rounded=0;orthogonalLoop=1;jettySize=auto;html=1;entryX=0;entryY=0.5;entryDx=0;entryDy=0;" edge="1" parent="1" source="oiI1xpTamVSD6dDsBw7b-112" target="oiI1xpTamVSD6dDsBw7b-115">
          <mxGeometry relative="1" as="geometry" />
        </mxCell>
        <mxCell id="oiI1xpTamVSD6dDsBw7b-135" style="rounded=0;orthogonalLoop=1;jettySize=auto;html=1;entryX=0;entryY=0.5;entryDx=0;entryDy=0;" edge="1" parent="1" source="oiI1xpTamVSD6dDsBw7b-112" target="oiI1xpTamVSD6dDsBw7b-116">
          <mxGeometry relative="1" as="geometry" />
        </mxCell>
        <mxCell id="oiI1xpTamVSD6dDsBw7b-112" value="k" style="ellipse;whiteSpace=wrap;html=1;aspect=fixed;" vertex="1" parent="1">
          <mxGeometry x="880" y="390" width="50" height="50" as="geometry" />
        </mxCell>
        <mxCell id="oiI1xpTamVSD6dDsBw7b-167" style="edgeStyle=orthogonalEdgeStyle;rounded=0;orthogonalLoop=1;jettySize=auto;html=1;entryX=0;entryY=0.184;entryDx=0;entryDy=0;entryPerimeter=0;" edge="1" parent="1" source="oiI1xpTamVSD6dDsBw7b-113" target="oiI1xpTamVSD6dDsBw7b-163">
          <mxGeometry relative="1" as="geometry">
            <Array as="points">
              <mxPoint x="1330" y="180" />
              <mxPoint x="1330" y="180" />
            </Array>
          </mxGeometry>
        </mxCell>
        <mxCell id="oiI1xpTamVSD6dDsBw7b-113" value="b1&lt;br&gt;Σ" style="ellipse;whiteSpace=wrap;html=1;aspect=fixed;" vertex="1" parent="1">
          <mxGeometry x="1235" y="130" width="80" height="80" as="geometry" />
        </mxCell>
        <mxCell id="oiI1xpTamVSD6dDsBw7b-158" style="edgeStyle=orthogonalEdgeStyle;rounded=0;orthogonalLoop=1;jettySize=auto;html=1;entryX=0.5;entryY=0;entryDx=0;entryDy=0;endArrow=none;endFill=0;dashed=1;" edge="1" parent="1" source="oiI1xpTamVSD6dDsBw7b-115" target="oiI1xpTamVSD6dDsBw7b-116">
          <mxGeometry relative="1" as="geometry" />
        </mxCell>
        <mxCell id="oiI1xpTamVSD6dDsBw7b-169" style="edgeStyle=orthogonalEdgeStyle;rounded=0;orthogonalLoop=1;jettySize=auto;html=1;entryX=0;entryY=0.405;entryDx=0;entryDy=0;entryPerimeter=0;" edge="1" parent="1" source="oiI1xpTamVSD6dDsBw7b-115" target="oiI1xpTamVSD6dDsBw7b-163">
          <mxGeometry relative="1" as="geometry">
            <Array as="points">
              <mxPoint x="1320" y="270" />
              <mxPoint x="1320" y="270" />
            </Array>
          </mxGeometry>
        </mxCell>
        <mxCell id="oiI1xpTamVSD6dDsBw7b-115" value="b2&lt;br&gt;Σ" style="ellipse;whiteSpace=wrap;html=1;aspect=fixed;" vertex="1" parent="1">
          <mxGeometry x="1235" y="242.5" width="80" height="80" as="geometry" />
        </mxCell>
        <mxCell id="oiI1xpTamVSD6dDsBw7b-171" style="edgeStyle=orthogonalEdgeStyle;rounded=0;orthogonalLoop=1;jettySize=auto;html=1;entryX=0;entryY=0.75;entryDx=0;entryDy=0;" edge="1" parent="1" source="oiI1xpTamVSD6dDsBw7b-116" target="oiI1xpTamVSD6dDsBw7b-163">
          <mxGeometry relative="1" as="geometry">
            <Array as="points">
              <mxPoint x="1343" y="411" />
            </Array>
          </mxGeometry>
        </mxCell>
        <mxCell id="oiI1xpTamVSD6dDsBw7b-116" value="b&lt;br&gt;Σ" style="ellipse;whiteSpace=wrap;html=1;aspect=fixed;" vertex="1" parent="1">
          <mxGeometry x="1235" y="375" width="80" height="80" as="geometry" />
        </mxCell>
        <mxCell id="oiI1xpTamVSD6dDsBw7b-119" value="w1,1" style="rounded=0;whiteSpace=wrap;html=1;" vertex="1" parent="1">
          <mxGeometry x="1020" y="160" width="30" height="20" as="geometry" />
        </mxCell>
        <mxCell id="oiI1xpTamVSD6dDsBw7b-141" value="w2,1" style="rounded=0;whiteSpace=wrap;html=1;" vertex="1" parent="1">
          <mxGeometry x="1070" y="190" width="30" height="20" as="geometry" />
        </mxCell>
        <mxCell id="oiI1xpTamVSD6dDsBw7b-143" value="wk,1" style="rounded=0;whiteSpace=wrap;html=1;" vertex="1" parent="1">
          <mxGeometry x="1000" y="355" width="30" height="20" as="geometry" />
        </mxCell>
        <mxCell id="oiI1xpTamVSD6dDsBw7b-144" value="wk,b" style="rounded=0;whiteSpace=wrap;html=1;" vertex="1" parent="1">
          <mxGeometry x="1040" y="397.5" width="30" height="20" as="geometry" />
        </mxCell>
        <mxCell id="oiI1xpTamVSD6dDsBw7b-145" value="w3,b" style="rounded=0;whiteSpace=wrap;html=1;" vertex="1" parent="1">
          <mxGeometry x="1100" y="360" width="30" height="20" as="geometry" />
        </mxCell>
        <mxCell id="oiI1xpTamVSD6dDsBw7b-148" value="w3,2" style="rounded=0;whiteSpace=wrap;html=1;" vertex="1" parent="1">
          <mxGeometry x="1120" y="270" width="30" height="20" as="geometry" />
        </mxCell>
        <mxCell id="oiI1xpTamVSD6dDsBw7b-149" value="wk,1" style="rounded=0;whiteSpace=wrap;html=1;" vertex="1" parent="1">
          <mxGeometry x="1160" y="210" width="30" height="20" as="geometry" />
        </mxCell>
        <mxCell id="oiI1xpTamVSD6dDsBw7b-150" value="w2,3" style="rounded=0;whiteSpace=wrap;html=1;" vertex="1" parent="1">
          <mxGeometry x="1000" y="267.5" width="30" height="20" as="geometry" />
        </mxCell>
        <mxCell id="oiI1xpTamVSD6dDsBw7b-151" value="w1,2" style="rounded=0;whiteSpace=wrap;html=1;" vertex="1" parent="1">
          <mxGeometry x="960" y="182.5" width="30" height="20" as="geometry" />
        </mxCell>
        <mxCell id="oiI1xpTamVSD6dDsBw7b-153" value="w1,3" style="rounded=0;whiteSpace=wrap;html=1;" vertex="1" parent="1">
          <mxGeometry x="1090" y="297.5" width="30" height="20" as="geometry" />
        </mxCell>
        <mxCell id="oiI1xpTamVSD6dDsBw7b-154" value="w2,2" style="rounded=0;whiteSpace=wrap;html=1;" vertex="1" parent="1">
          <mxGeometry x="1060" y="242.5" width="30" height="20" as="geometry" />
        </mxCell>
        <mxCell id="oiI1xpTamVSD6dDsBw7b-155" value="w3,1" style="rounded=0;whiteSpace=wrap;html=1;" vertex="1" parent="1">
          <mxGeometry x="1110" y="210" width="30" height="20" as="geometry" />
        </mxCell>
        <mxCell id="oiI1xpTamVSD6dDsBw7b-162" value="&lt;span style=&quot;color: rgb(0, 0, 0); font-family: Helvetica; font-size: 12px; font-style: normal; font-variant-ligatures: normal; font-variant-caps: normal; font-weight: 400; letter-spacing: normal; orphans: 2; text-align: center; text-indent: 0px; text-transform: none; widows: 2; word-spacing: 0px; -webkit-text-stroke-width: 0px; background-color: rgb(251, 251, 251); text-decoration-thickness: initial; text-decoration-style: initial; text-decoration-color: initial; float: none; display: inline !important;&quot;&gt;Multinomial Logistic Regression using Softmax function&lt;/span&gt;" style="text;whiteSpace=wrap;html=1;" vertex="1" parent="1">
          <mxGeometry x="955" y="60" width="315" height="40" as="geometry" />
        </mxCell>
        <mxCell id="oiI1xpTamVSD6dDsBw7b-174" style="rounded=0;orthogonalLoop=1;jettySize=auto;html=1;dashed=1;" edge="1" parent="1" source="oiI1xpTamVSD6dDsBw7b-163" target="oiI1xpTamVSD6dDsBw7b-165">
          <mxGeometry relative="1" as="geometry">
            <Array as="points">
              <mxPoint x="1350" y="560" />
            </Array>
          </mxGeometry>
        </mxCell>
        <mxCell id="oiI1xpTamVSD6dDsBw7b-175" style="rounded=0;orthogonalLoop=1;jettySize=auto;html=1;entryX=1;entryY=0.5;entryDx=0;entryDy=0;dashed=1;" edge="1" parent="1" source="oiI1xpTamVSD6dDsBw7b-163" target="oiI1xpTamVSD6dDsBw7b-172">
          <mxGeometry relative="1" as="geometry">
            <Array as="points">
              <mxPoint x="1370" y="620" />
            </Array>
          </mxGeometry>
        </mxCell>
        <mxCell id="oiI1xpTamVSD6dDsBw7b-186" style="edgeStyle=orthogonalEdgeStyle;rounded=0;orthogonalLoop=1;jettySize=auto;html=1;entryX=1;entryY=0.5;entryDx=0;entryDy=0;dashed=1;endArrow=none;endFill=0;" edge="1" parent="1" source="oiI1xpTamVSD6dDsBw7b-163" target="oiI1xpTamVSD6dDsBw7b-184">
          <mxGeometry relative="1" as="geometry">
            <Array as="points">
              <mxPoint x="1413" y="8" />
            </Array>
          </mxGeometry>
        </mxCell>
        <mxCell id="oiI1xpTamVSD6dDsBw7b-163" value="&lt;font style=&quot;font-size: 15px;&quot;&gt;SOFTMAX&amp;nbsp;&lt;br&gt;FUNCTION&lt;/font&gt;" style="rounded=1;whiteSpace=wrap;html=1;fillColor=#f5f5f5;fontColor=#333333;strokeColor=#666666;" vertex="1" parent="1">
          <mxGeometry x="1368" y="105" width="90" height="407.5" as="geometry" />
        </mxCell>
        <mxCell id="oiI1xpTamVSD6dDsBw7b-164" value="&lt;span style=&quot;color: rgb(0, 0, 0); font-family: Helvetica; font-size: 12px; font-style: normal; font-variant-ligatures: normal; font-variant-caps: normal; font-weight: 400; letter-spacing: normal; orphans: 2; text-align: center; text-indent: 0px; text-transform: none; widows: 2; word-spacing: 0px; -webkit-text-stroke-width: 0px; background-color: rgb(251, 251, 251); text-decoration-thickness: initial; text-decoration-style: initial; text-decoration-color: initial; float: none; display: inline !important;&quot;&gt;Bias units&lt;/span&gt;" style="text;whiteSpace=wrap;html=1;" vertex="1" parent="1">
          <mxGeometry x="1245" y="100" width="60" height="40" as="geometry" />
        </mxCell>
        <mxCell id="oiI1xpTamVSD6dDsBw7b-165" value="" style="shape=image;verticalLabelPosition=bottom;labelBackgroundColor=default;verticalAlign=top;aspect=fixed;imageAspect=0;image=data:image/png,iVBORw0KGgoAAAANSUhEUgAAAXIAAABmCAYAAADWFBowAAAAAXNSR0IArs4c6QAAAARnQU1BAACxjwv8YQUAAAAJcEhZcwAAEnQAABJ0Ad5mH3gAADciSURBVHhe7Z0HfFRV2oefmUkmk0nvPQSSkJBQQ0noRToICIIoawfLrm2tq+5nW11d17LWVUHFiiJ2OiJNek3oISSk9zbJZDL9O3cIihqKipC45/n9LmTm1jn3nP953/c0lVOARCKRSNot6pb/JRKJRNJOkUIukUgk7Rwp5BKJRNLOkUIukUgk7Rwp5BKJRNLOkUIukUgk7Rwp5BKJRNLOkUIukUgk7Rwp5BKJRNLOkUIukUgk7Rwp5BKJRNLOkUIukUgk7Rwp5BKJRNLOkUIukUgk7Rwp5BKJRNLOkUIukUgk7Rwp5BKJRNLOkUIukUgk7Rwp5BKJRNLOkUIukUgk7Rwp5BKJRNLOkUIukUgk7Rwp5BKJRNLOkUIukUgk7RyVU9Dyt0QikUhOg8PhQKVSHf8gpNMlnio16pavLhRSyCUSieSMOLDbLeQdKiUwMhg3p5nGqnKaxB5dVCJBnlo8L2B8Q4ZWJBKJ5Aw011VRtGkFpbhj0Whxms1YzUYcXhoOrN1DWUk1lpZjLwRSyCUSieR0OBox1Fex84gFPz9vtLZqjhUUs6/Ijq9/EH62fMqqaygz2FpOOP9IIZdIJJLT4DRXUdNQwVZTApHenugtRRwtKSezzA1/nS8p8WZK6gzklTe3nHH+kUIukUgkLTjsVpqbGqiqq6PeUC82I4bqSupqS8hXaVBsbjeVA08/PT4hQXiIzxot5JcbKKkyuq5xIZBCLpFIJC3UHNnCZ3MfJP2qK5lz7y1ce+eLzF+WjdUziFh3RcShtqAIN6uRqLjAlrNA56bBQ3Ph5FQKuUQikSg4DZRXWTDb4rnnmsvJMO6hY4yOsORkgj39CaivVfofYm6qoqKimKKKWuxOMDdCTLgfEaHeLRc6/0ghl0gkEhdqAiI70qtfOpN6hOOTOIaBA/rSJyWeUL8AekVUk11mwBzYhaTkrvQIc8PWWM7+0gDC/QPoGKIEWi4Msh+5RCL5H8OBqb6K8mMFFBWUUqvWoAqIp1tyJFH+bpgqizm0bRv7tD0Y0qMD8eHe2Iw11BXsZrsxnpS4YKKDPFFZm2iqyGXDIXdSU6OJjvC9YJaxFHKJRPK/g9NOc0MJh7dvZPWHn7NiyXqyVA6q46/nhX9cyfReekp3H2LB183ceP9FRIZ4437iVIeT2opqPPy80XnqXH3JTTXVaEJC8XBzQ9Ny3IVACrlEIvkfwYatuZR1L0zjmYUWAvvN4rrZIwktXsKk2zdw8+N/oSd2qrdmE/v32+kV5IFe8+Ox9yeG6LuG6StD9J0OUCz6lv0XChkjb7eIDEQTZcUVGOqOd3tyuhpimmiur6DG0Ehds6yj/+jYzM3U5udS22TBIrKE024V3zXSbKmlqKyWRuOFHG/YlnBirDhC5seP8MzH2fj2n8SEKyYS51nH3mULMdeGY9i9jjXr3uKpTWt4dMVBSqvy2LxpP1n7il3dDhXUavUPc60ogt4GRFxB84ig5W9Ju0G4h4Zysr7+gHxHAJ5+AfjrHVSWZ/P00y+hDg6kKqeQyoJyNBHR+LiLDNdypuSPQ3NNPvlHdvJ1tp3Y6BB8PDXU7d3E1mWf81ZTFAGFOyhpcNLk5k2ot7blrP9NnJYajuzdyFNPv8q3ezsxZPwIQtWVrP9wCcs2OOk3dSbDB8cRFRuMPigAVV051rIDHCkDvX8InWIC2rTVKy3y3x0nDrsNi7CcLFa7cMV+u5VsNpRSfGAN63bmYHSq0HiIQuq0Y25u4MiRbGotTmyN1RTt2c+aZbkYbQ6X/S754+AwVXH44AGWbsim2s0XN40aN5UTa0MtNUUFZNeocHM2ULRvPfszt1Nmsrec+b+Jpa6E3AM7+ei7ChpMXjgbaijPPcKxMjuBfa9n9q0jGTpeWOlTZ3PvnFnMSdGLNLbjH+JHUKhPmxfKcx8jdzqwCUGpqK7HaneiEe6H02bF6i522dzRanXovfXo9Xp0boqb0nKeQIk32Uz1VJo06HQ6Ary0bdaSdFhNNDYYqRUWT3BEEJ7up5jK0ml2jQwrzi/HEZpAXKg3Xh6/vlnE6TCTv3MVGxYv4HDGP7g+I4qOfhoh4k0YDI1U15oJ6xCBj0ZYGwt38O5/j3HLVzfRJUCHzmbEZLFhVusJbMNpq2RJh80iKh83NEKg1Bd6jtDfGafDJvK9QYitG75envh6up/h3TiE5b2Ud5bls7wsic+eG4mH8NKsTUYa6gw0CQFyD4km2MtK1lt3kVXphsfYR7g8zR+bsQ6jwx2Nuw4fnVvL9f741BxYxdfvv8S1/1oiyms0U2bNYcy4cfTs0kmUST+R54RBpIRK2mlWO+cVjd3cSPmWD5jzp0sYO3Ysf5o8mcvSe9Pv8t70HjKFmdf9Hy8sWM72/Aasjh/XIbZmAwUb32b2s4uYuzYHa8v3bRFjwTY+eeVZxk56jHVHDRiUAGVr2KrJWvkxD8y4mlu+OMiRGlPLjl+H3ZDNd9uqee7LYVw7IIoofw8cTaUc2foFrz39EA+9u4f8iibwiKJHby0zZm7k3+sKKKwzuzLzqq/f4/lvcmi2O47PpdwGsVvMVOZnk1dSRX3THz/GazZUcHTNq1z6z8/5dEfhWeT7Rna+9hma/Qe47sYMdOJNqh217N/0FS8//SoP/3sptW4a7CoPuo69hIbmFObeuwWTw07Rhrm8/eUyvswqFdL/v4dO78Xf53/O3/52NxcP6knHYG9UFgO1RmHg2Npvm9I5F3K1Vk9wj4u5/YqRdIt0I7vJDf30x5j75CfM/9dsEgKqeOe5h3n4jutZk1vtCgMomKqPsH/l69z00EEyEhMZ06uDsMfaLs01RdQXb6G2fjPHjCZMyhCv1lBqeZsdjbERP3GI22+0g+2mRswqM82RfvhoNcKKELfwDMbP20GUfiflYSE4tcLiEq/W3dMLNx8/Nu4vFRnVgm9Cb+IC1GhW3MekD3aSVWFse2LubKImfyfvXjOH219Zzqrsqj+04BjLsti65G2ueTCPSwd2Z2ByxPfd3VpHvDFLFXuNgVRoO5AcpRc5SskEfsRGBeDh5k/uES8CdSKvCU9GGxRHhK+KqMYdFFo0BPaeQELterZ89RK3rzjiSts2lwd+F5Tq0YRDGI+HssuoNjRhMpSSueJjHpoyk42Hiqiztt+UOOdCrlILNy4wiphgLV7qZnR+/qSPn8CIfiOEKzORKUO60NXHwL7d2zhWY6TZ6sBhKmfvrg28+N5SQgcNF8cmkRTm1abjUrqwzvQadjHXXzmFruFe6N1PJdCKu6ZyVUqqcxAiaKopobG2CJWXuyt9lCuqNKJiqbZgzDLSKzkSX72H63sPrwC8fTpRu7RInGdG4xNBx5Te9O/eicq3nmHzzmwK6tqWxes0N1BVcoSPtu5AmUvOQ9t2Q0C/FUdTEVs2fcv8rzeSMH4So/t0okOg55l/r9OGxanHqfFG595SSlTuOE2lWPxNWHp0wF98rQTwVFodSgTFm1phkSvCnkCv9AzinAbyFrzNmqONGE/lTf6B0Id0IL5rH4bFmdm66FWeeeQB7n/gZd75Mo+A/qOIDfHB65RluO3zO2il0geqkaJ9eVQX2Aj270D/1EhXPNwzIJbeXRMZlBLqsgKaLXbsTivVR7eKDP0dy6ujmHn9KFITgvG8kL3rzwKviBR6jbyc2ddcRa9wb7xPFKhToPxeRTJ/a5GxW03YLcq6JD9kOqfNQHGZlZ2HYhiWEESA/rgvoxHekc4jGNWeemyNNmF9ueMf05XeF13KNI/DbFm2jZ37y0QBdx3eJrA01lBdks1ep5O0LpF0Cr1wo+V+X2yUH1jPhi272WqO48bbxhEf6YvurPL98ViuSslU3xuRVip2H0RlqqHLRR0RBvkpKgQPotPGMLhHKinVe3jr3a0UVjfRjo3Rs0IX2JHk9InMvmo6vWO8hEVUR43Bhj4ylXE3/5muMUGu3l3tlXNfRpx2YVUJl2VjPvkFwfgGptE51BONYo0K0bY0mTA3Ho8TKy3tWGrJWr+SPUL4O1xyJxmx/vh7qHE6rDQ31lFemE/ewYPkl9VgaFZ6czpdDY21hw+TU1xFVZPl/LmGygAAmwlDbTXVVbU0NDuwewaISkd13sTG0zcEfUCY+OuHgIO9sYpjzSo2+KQT6wNa8TBKmtitFppNDTiDPVCLisaVTdXe+Ecmc+19l1GwZgub12VRYLxwE+L/GCdNtaVU5mSKpA4iMSKAIJ8/Zrc5h7mK7Su/4nCRgU4Tb2RAhPBgz1pInMIAEnnPZTSd+MpA/nfV6HOsjI7zxqR4uso+Jc8qx4s/v2/IcwsmtX86Q0Z2Z9VTb7PzaAU15j+4Va7RExw/gGn3vsOLr85j3rw3eevtJ3n84amkhHii/cnAn/bGOdcfp92GtTyX1c1G9iXE4t0nmWhRAbrSyVZOzoYs9nx9yCXsYb6e2Ip3sHznUfYb/PjruBR8tMejyHZjKdmbvuC5O+ZwTXo/bvrXR6w8WCn2mGks3svCEUOZ+qB4ITsLv++s/3vjtJuxVu1l5Scf8N9/3sttdz/A5H+socykWLvnBw9vP3Q+AS2fjmOqK6VJa8TWuxP52/ZT22B0RQSVRrS6mr04r+qAZ5iOE5Lorvchqv9EBvnupThnO2sO1bTsudA0U191mNz9u0QeuJZw3zB8PNp3AWsVIa6NORv4dHshlc5gbhje+XgY5PjeMyCOcvOmg9pCmL2JBlfLqFBsUTFk26MpatKhrtxFVlkzzTZF6IVBJLYGcZRwir8Xc++ITnTunsoI52cs355NdvmFm0v7/KF4Mm7ovHzw8fFC73E8PPlH4Jx3P7SbhBX93UvMuv9t1lnSGHv5bF67NhWzEPeNL/6XL1asZZ8ukq5/upvn75iKOvN1/vXCdxyydeW59/6Prr5Kf1iR/yxGGqqLOLRtPQuvuYuluklMf/AGbrkpA8/aAyx9YASPF89h2pVXcu/lXfFsuf8JnBYD9cJF/+LDDdRoxQWFmXrqxlMlCczU1/vTc/AA+g/sSnBrLU4ub6Oe7I2f8OLcD1lZ6EOvWY8y7/qeQnBOMcLLVsamBe/xwj2v0Pj3j3lyWle6R4ia7RTYhAVdkfktKzNLqTFacBPPrXLToLU0ok0YSb/OHpRu2Mz8F7dz+7L/CGtCh/nw57z7wfv8e0kNj/77dSb060C4nzsVe5azbenbrOn5L27pH0WngBOzs4nS7yhj/tBpfODVj8Qb/swLU1NaaWRT0sXBsS1f891+4WHV2YT7efqmOKu1EffAWDp0u4iL08LP2HXQITwcS3UO33y6gC/X7mLnwWxqSosoqA6lc9dweg67mDETpzBheA9C/yjGubCmC795grue2o09biiP/udWuvr8ICnGslxyMreyIrMSrfjNamHcaISpoNV64dF5DBPTfDn2wV1srlBjHfcEd/QJFJ5tDs/PeZhFR+yE3XQH8y5Lx0/knebcxcxdk8eXZUkseWA0OnEb152cDRRu+oZ5wy5j4ez/8n83jueynhGtzhfitDVhrc0VZWk9JWYzdp3mNA2ySp6x0NDgQ0L3NIaO6Uf4H9OpalOc4wrJgdVsIG/7Soy1lTiNJRTsXcN777zP3EWr2GfzJXHyVdxw773cOmMkkd4q6gr3YKiqEgXeFw8lJtCCys0T7+AYkvsOYvyNY9BrD5FfuJ/CWgce+hB6TZ6Ob8dYNB6tT1bjtAmLpK6Ewzl5HMvLo+DYMY6ddsujsKqBRouwrU+VKioh1h5+hIb6iWNUaIXApqdG4iHcjdPL1dlip7m6jMxnX+XTLVlsLymnePduMue9w1tvfUttowl333CSu3di9PgAnv10P7kVRnRhqQwdO4tHbr+OjC4R+Hm6Y60+zJ7SGr50Dmdmj1BCvU8uekpp9iEkSfwetRFDeeNpurzZqC4solikUWFBQSvp9uMtL6+Q0soamoXpdyYLwdpYwZGdK7nz/sf4MEdYifGJdIgNo04dzJQ7bufq6cMwl+7l/UWfs3BnyfFQQbtHmZ/DQnnudlFGGoRn6o3Hj9pXrFTu2snGN97nvdwScssryF+1krVvLmTx8j3o/T1Ra3R0HDZOvNMoSj9YSr5FhUUTzJArruDm265kVu94/IQno3ZUsuXrEuH1ejNrUi/0ymtvuQsqLR4+eqJ6iYqjsg5jg/nUnq0y7L+hlKN5yvsV5aSV9/7Dli82cUxFHfVmu6shXvL7cyrJ+nWIDGoxVrB73UEM1QGkxiUwsGuEcGH0+AbF0GPypUy76WauvmwKF6WE4OHmoL6iiCabBY2fv/gs8tcJRVSrUbvrhZhH03vWBOKjmqirKiC71CiO8USvCSOlaywx0X6tWtoqjQc6/0h6DM6g/wCxpaeTftptAEOG9CGpYxhep8t8ImdamxqwW/QE+ojfFBdwPP5/LhDpZ7M1isrKk47JXenXP43kQG/02Tl4dehBsni2UH9/IpKSGXjpILQVe9h3uJAalfidAydxzZWz6Brtg6ejhiMHjpJT4UZw2hi6hevx+pFYKM+rxTNahbupEnNBGQ2i/mpdJ1X4RyXRvVcGgwcMaCXdfrz17z+I9J7dSY70FnXdqdPFaa3n2L6tLHrvY+ZuqESfNJiRI/qR3iUav8AEJl9zE3NuvJJe/k4Kt25h6eZjWFzx3t+CA1NDLdUVFVTWGl3hsPNfNyh3tAqvI19UduDm64v25PzmaKLRZKXREUzfgSJNM3oSZTSgr2smsGMqveJ88RQWekDCCLp06Ucn4fGtWbWfqkYPUi8ay8xLxzMtNRi13Ujexh3CONHTIaYLl6SGtNzgBBo0One8OjlR5RdgFEbMKRu91cJYEsZTSnpfMgb0P6uyNHhIX7omReEthfy8cE5DK05LNeWH13H78OtZYx3JVQ/dxD1/vYiwVqsL5bbNfPPkJF5cIRzHHjcx7/kprmN/dLjDAqaDPHn5TWxw70XaNbdxX7qObx66i8aJd9Azox/dgluZ0F24r8r6e0Zjs7Dkzk4AnOLOWp0OnYf2eEy/VezsefsOnnq3BEPMWF58bQ6dPMUzn+r4XxJacSgj80pZtbaGjMFJ+KjKOPjFF2z8YAPxL7/NoE6BBLZ057E21VKx4xOWVaXQPTWZfknBru8VHHX7WbKqGANBTJ7em5+vW6KU2Ga+fWQkzyxw4tZ3Ns++eT0JIhlb+xk2cxPNFmGVnaqv/E9Qadxwc9fhdcqRg06aSjby6bx5/PPl9dj/9Bzv3z6YwOy3mf/mEj452oX3V7xEimcuH/7177y5ohym3cPyp8fjIxL612qDqVp4ZkUlFBUp/ef96DMuXVzveDe984dDZE0jSx4YxDPfJRI76gae+b/RhJ7I9PYqcnIqyCt0MPSiLjQVbWfNU/Oo8ogm5c77GBj9QxDRaRLW+uHDzJtfwBV3j6dTVAA65QU6rTis1ax85nPc+2UQn9GduJ8pqvC0stezXNz7/hWTuPGZu7nu6gFEtBozEeVHlKWmpmaRB852IJkaN63WNd2rEio9HRWiYi0qKmr5JDkTvqLyT0hIaPl0nHMq5Na6Y2RvXsiwWY9T3f8OHvnLLO4fn3SKeNpJQv5+BU2J1/DCgr+SpAxk+NGLV0SnnmV/n8bLB6LwGHglz0704b7+Wdzy8Xj6jor5WXzchd2Eqa6MrVv2YbCeXWOkzeZJhy7JJHaOI6DVh1auYuDLmyfzysFw/MbdzFv3DXcJ5Snz6i+Mkf9AMzvm3svG/YWYLnmFOwdFtNqybrdaUSnei+akguqwigcSynBKv/YHIX92gfBAMm7k5XfGothsrf2OquztHCosp6zBehaiZ8fNO5Tg6FTSkwJPYZVb2ffpbcx74zW+KurO80u3MjTCTNZ/7mLuJ4fJSriTb9+fjE/tZm6/+0kWZToZNftR5t/cG3ch5KdM6zOQKSrgrbZQsnc047Etl8nfvUeqpwqvH1kOvzc/CPm/P9EROuIGHn/pele+/zHiOHsji28bRGbHK+ky9nqmdf1hjcjvEQaL8r7taq3wVE/0nlLKlh2LQxkwpgw9d335E04I+RgeWPFX7nzhGq65OkVUb60gjClHU4WrLFU1ms6qc4HdpiO8YyeSuye13t50Es8//zx33nlnyyfJmRgzZgzLly9v+XSccyrkDQU72LbocaY/spxeN7zErVddwuTuwacoeMptbex652b+PTePqpCJvPzRX4nX/lTIFezs/+hu/vXOUTIrA7lygrhm4vVcMjKOuHDPVuND9sYi8nYt4bLbXqK+wXR2VoRzFHPuvZLr5gwktDXFcpiFWXeEx6dez0Z9On2vv42HJyacXtx+pZDnrfoHL+13YowYxmMT+hPq5f5D2OkklNfn+vpHO0/82tZTXhEJRchXCCF/fkscQYNu4o2/D+HnT6Vcx8z6p67izWW72FDUcq/T4iQ+fQyX3PR3bhgU2XrYyVLIxw/ezxtLDlI+9AaWPDebCPsh3rjvET7fYyLm+sd545oe1G6Zx73/fIMdzZ246oHnuHt41Gk8pdMgBJH6PUy/fA0Dpw5g4rhk9E1m/Dp3EkZALVmrszA6dSSMTD+F93guEdatyEdbXrucx+Y24dt3hvBKrnfl+5MxVeVwZPnD/LVwAJcNHcmMXvH4e57Cw1E8TvH+f5w0ihd6/JvWk8xGpRDyxQ+N4eHyh/j7vZdz1bgEV//zn6JM0NWQu5KZt77MkfxyV644I86BTL36Cu78+1gizlD7S4v8l/Fji1yZkE8Yc+dOyJsoWLeET++6nYezyrnymU+49tIJ9Ik83Tp2Tko3vcY/nvuSvc0d+efbL5ER5CasrpbdJ1Gx7U0eFdf8YIuZ3pNm8OR9s0g5zUAcp6WBuopclqzJxGw5dVPeyajoSLe+yXTtFokw1H6Gw9pI87FVXH3VQ9h6TOHyW+9kRuqPuwL+jF8o5HZLI/W5a/jX0kOoonsyqn86F8X4tuw9RwjXG3spr14xjS+sfek648/8+/KurVRIStawU7RtGfuOVVCs9GE7CwIi4kjomUE38Ttbq3yw5PL2bQ/y6Y4G/G76B3Ov64ntyNc89NB/2NUQzuWPPceNvex8dtvtvPRlDV6DJ/PICzfSN1SH01TCzi37KS4uAx8t+wwxXDGuO7Ei39QXHiV77wEKhDxbKwzEpPYkVuQRc85GFr01n9eW1TD8qquZc+OlDEj0Q91QwFvPv8HqDVn4dunBiMsm452/kwJ9Gr0SfHErOMDezYcJ/dNt9HA/wvIVa6kSfsvIKTPpo/SpxURR1h6OFpZSXNtE49q1eEy+kYxuwWiqD7Nh1xE26wZyz+gQqpYspqhRS8jFMxgWp6do7bPc9c9lNEUN5O/PPkp60A+p31yTy969m3liWQ4DJsxgUteOJAe0JrG/AUcDx3as4qVZM1k9/BUevGEC0/pEtmoUKWMnLMLbVspSreHsuimqiCYxNZne6R3Qt16TSM4BpXs+ZsXqzedoPnJHE0VbN7DmvY/4dPFmch1O/IK7EBkZTUREwE8a2k5GhYe7k7yduygsrMCt50gh/F64t2J2qSxlbNh2gCP1ngyccR0z+ka45ho5VR5RGjs9fcPp3qMHaWlpZ7X1SutIVJgPpxqXYVdmddzzBW8vKya652DGCgsuQn8Gc8PRSOG+LLau2o5lyHRGpoQSdopBLg5R+VQV7OWt119ig6MvI/r2ZZI43pV6igvdqir+clwFs2IXc1/fiCZB3GfcYHqEt1a5KPdT4xuVREJq62nW2tYlsZPrN57yce3V7Fj2LTnVTkKHj2dilyBKNr/J198W4QjqzbRJ3eHAXN54eRuWsMGMnjGJsYOiUEwCU8lGPlmRzf6iRqLC3dm610p6rwhs+ZvYvW0bOys0BAX5Upe5gMwmPQZdMGH1Oax64UUcPXuT2j+DrgkdiQzUobLWs+q/T3KwSYVft3S6RvtRt2UBH67Nxmi3Y60qIGfLGpYdFZWJh4XM9Z9zrKwaXdIw0qK0HNvwMdsOFlLcLH5rXQX7n3yKyj4XExcXgo+1lINZu3h/4RYsDgeNhYXg6YNv5650CvTAQ+vk0PrvqGiwo+82mL5Rx9Pf3lTBni2rWLBkLXv8J/G3UV1IDtYrFpdr/7nKA3ZjGbmZ2/nvvD30ufo6RvSJJ9q39XypUrvjpg+hS2rXVt93a1uvtAQ6RPufsixJzg0lOz5i0aKFrVbAvxyHidLdezm89xjG/v3pLTbD0UJyDx6j+gzjv7WhiWQkpdDFQ8Xyb9aKjG3G+rNTnFiMleh8QumfMYjbJ3c5rYj/PjixmoUo795MsyqB0JAEIv3OYQdZZdBGSQ47Fn/CY68ux1JyBFtjLRX1JqymevK2bKGssg7Tb56hzY65sYbDK1aS7xNPaq8eDE78oaH0/OCOd7C/+M/smiN675FcsnasprrMgrVBS8m+dXy28EOKw7oz8sYJTJ2e+n2Drbm2kIPlBso9OtCr/wimpsURZC9n+1eLWbsxG0fqSKaOGcvwxHIO1xxlc707kQkpwtNTcfF1tzFj+mTSO4fhptGi9o2hZ7SWcdOmcfGsOYxIjaOzfx0l29ZwKLsSh084MWGefP3y2xys1pIQ7EPXIOF72sxYROWwbO6HZJWrCOt7EWMy+hCBFzHhgfiGRNOp+yDGDUln4O65LF56AFvf8Yy4ZiYZyvBwxYCJ6MLQZGHsiEp19fqN1Jkd2O3NlO/bzOKFn/POJ+uJV5VSUdOIwdSMoayI/MxMKkV5Usb5/Das1B4T3sueQ5QmjWBieiIJIaf2EiVtF31wAnHxKedIyN2C6Hvz3TyxaRObvt/e5KHbxpIcdIaWDnUAPaZPJG1cR7LnP8CGo1XUmI4vwHB8UxqHTBxY/SGBsT6MvfZykkSp/lWx0l+Bcn+7XWwOM2ZjBZnLt2Hq2ImAxBgCz/DTfhH2Wo58t5aP7v8vaqHV2959iv+8/i7vbsuhPHcrz44eJSzR7RxT+gn+Bpz2Bqrzs3j9jrkkjb6YIaMHEON1ns0mbSQDJg4lrbONLa/cxc2PPs2735ZwrGY761c9xtWzH+HBmju56bknuX7mYDqc1OPCNyIJz5qN5O5YxIYSLROmpqEqWMkXW8IodVzCTUOjXUarUxWLSuuPys2MqamerMNqwr31BHi1vDSnTaR5Bfu2OdBbvOkYosNuraOmdLOQ2QxG9R3JYLWGxncOCev5Xqb1SyPY4I+63JvUcBVV297jjR1TiAgawdjOHjQLET5CCrGRQcenFXD3wicgXIi1itk3jGfkoJ50CPDB68RYCXUwGbOnk9Rbz6EFT7GuwESDqYQ1cxew8f2VGCsKWPzYtfzfh+vYnJvH9kVv8eK1N7KioJmGn1s6vwinrZLM1WtZt2gn0/75KL07hxPwRxxB+z9ATMbV/OXOv50jIf+NeISkCEGZxMN/6sVT17/Dd9uPUVxeQWl+ASVV5Rxd8STP1Y/G3HkakxST6DxSmbWUL5euZNG6A8IiPsrzh+z0TO9Mn+Tw04xuOwnFgD6bcqfxI3n85Ty6eQvbtqxmwX/uIr5hGwsfv5FHX3udhRYLzZ5qtGfqy3VazJTuWc7y+Y/z2dQnGDMmnd7RPi37ziduRPYYz58ffp0NyxbxwqxkSht0hA+9jsffWcLmb5ay86mZjEoOFp7Xid8rEtJhQR2UxrVThpDh7c47D6+hymGl6OhyvHuZ6DAqVljuSmI3cmTBUWKKLaT5qahpMvOBczRa/yB8WmalcgrhtdccZJl1DI3eXYjwstBYVc+mD2DmvVfSb0QURY4qjiYG8Mo3M4gNq2NrcypHdP0Js5Sy+YU3iZ8aTFTvIFT1ZZQV5PIZ4/D19sPlqNmNGOorWH0A8iuMmMw/b6fxCE9j4sUXM3t4R/466RV2HVUz8MEneW3Ld3y34iNee2AmVV88watP3M1zy1ewXpRWPy/Nbxy30MS+Rc+wJPsQR6bfx53Dogj50WAxSXvC0XCMZQsXt401O5UYnKeXH+ERUfg48lhbaWTt4mVs+PhdPl+/ib2qjqT1Hc7onp2JCziLaT7PCYoC2zn86bN8+uk+tuw4grVuNV8ahjL7iokM7hKJzylj/ydjomT/Xnav2kbTiMsY2SWUsNYKjkqDu84Lv9AwQsPCCI+OI75jPKmJicR17ELa0IlcNGQAsUE+aH9lQTbkbWTXvv1ss3ZjxoxLGJYUTqDnb50h/degcq1Q4+Xr7+qJYc9bx4fLdpE0cDxTLplCn/hIwvz0eLj9sOqSsmBJQ95WcuwR+Ad701Rey74tOQy+dhjFH73GAVVnArsPYHCEsujHWv49r4GojEGM6B9AU3Eur24OYvaV6SRE+Lh6RSlTSdQeWs4bZX6ERASR6N1AbVkRT7yh4bL7LiM1oo7dW4tZmy1E9qFxeBSt4auiZir1ASQ5yilZvQD9lJtJ6+LL4S0reeLNLzmQ0JvBSXrC/d1oKC3m8LYdGHyd5Hl3J0xrw1/nwOrpy4lmFZXGHS+fAEJDQvC2Z7OiwpuI2Fh6pXYiIjyCqLjOJMXHk5yQRGJqHzKGj2Vgz2T8Rb77NR6p02mnas9CVuVYsMUMZOr4YfSO9BXpcf5zwO+N0u/daqyhqkJUsnUWrE4N3p5ttcKyU19joK6mEQ9vHZbqYmpqaqltsmPFA/1JI95/isNixO7m33YWX1amXPUOiiQhVk0Nehy1VaiFS2zzDafzgAlM7ptE51Dv8zx4w0ljSQ4VdSrsKncChQjED7mKKf0ThZusOzt3RhENiwM3D2/ihgyjV5QPvq0u9aZM6KM6PjeJ2g1P32A6dOhEYkIiUVGd6NU3nZhgPzx/g0VuaazCpPbFM34Yl/aJxd/jQoj4yThoqihi7yuvsnivH31HT2DksB4EfG+F/4CtqZbK3Z/yXrabaz4XS0MjVSYPRk0ZgPPoXrZX+WIUPlKsWxUbVmdSE5QhvLw0ugRWU5S9k5XWPlw7phPR4r0pV7caqynf8ykf7WogPDySxAATjZWH+LCyP3Ou6EZQ0y525dSR7T2QGyfHYchazLLdZTQ4fege6Ym6bCOZBh2NzWaKCo9y8MB+Ciz+DIwXwn1oN/uzS3ALiCZtQDhfr9xDszDIQyKjiAoLQjhW3+PmIfJDUCid4zSU2YLpHB0s3rMXbu6eeAdGktS5M7GxHUlISKFraldCRC3wa8OKymnmmiIa/VLpnNKH4Z1DznN5On8oHldzbT4r3lnA3gYt2qBwYpXVNtogDUXZlFbW0aDxJtjPA3NVHtVmBzXKaNu6etyDg1EiX63Xt2r8wmLa1ir6amGh6IM60S85jn7d4umePoCBw8cxQWnQ8tKe5ziQkmpqAuK6EJcsBLVrZzp2Hc2M4UlE+HqcfQFQafEJjSJ5QD96xYUIq0yI51kWRGWEpLtOFGgfb/RC/H/rVAAefpFERieQGuWHu3iI33a1c4GVJmEF73rjc4r9JjFkwhD69Aj5fpbGk3FZ5EWZLM4F9+Y6fH0DCUwZyPDuEQSG+nCsyiHEvV54SRZ2H/Ji5pwRpHULw5q3g7w9a6lIu5SLU4IIbpmr3S4smcbSfWTvs9CtZxrJ8T5omsto7jmC8d3EM9TlUCcqOu8+fRkW60NT6WEh0E0EB8aSPrwbIZ4GNmw/TJ0jgPj4OIYkBlN1wCYqohD2Z2VSZfUmfdJ0Bif6s3nlt6hFvk7o0p3urfQOUrwT75BEBqZEERP443ERKjd31/JkXl6ePywi8WsR79wztLMwlmLoENS2F275zTgtmOuLeO/OhygJSyGmZw+SAk/XFfpCoIQLjWTv2C2EW413bBzB6iYKDmRj8gkTznwdzeWFlHlGE+7t5lrx6aeo3LS4K4uvnLt+5BLJL0QUtqaGSvbt2o/VN55OHSKICNK37Gwdu9WMSXg4arUGvedJkm8TBddix+xU4evlQbPBgFPj5OjyBWxf9C66J75lTJSOwJZGPSXb2y0WHBotGmHintHKdVixOYX0qTSu6WAVmpubcXMTBUyc7HSIikR4BFq1cIddUxko7RnHD7QKc1wt/ta4/VHt33OHko6uKTW+lyXFU235szWUY1v+VFCJfKGMJlYpyyHW5/JCv2mECTHvM/0S4j3sIk+446FMtHe21tTvidOG05TFhyusBIdEMSbDX3io2bz65AbSZo2lV3dPqvKLWLjNnz9PTSDgNHPzSyGXXEBEIXQI8TVbcKrdcRdC51ps5HSI7KrMgqiUQyUU9T0tBVrpZaRWW1g6dSZHYsMpiOgGTcHc++AMgoRFe3Jk6njWP4NQfI9y/eMHnjj8RNE5/hzH97v++sl1lc+uPSdOlLSK8u6aynIprKyn3qRMBKAkmKgoT55M76cI4Xfa7cenDRD/+ER3Iiw0mEBNDfWFmxg1Zg/X3NOTDl5FbF2RSXWPCdx2zXA6Bnm7whUXEmV9A3P+Fzy/JYTo2GSuHOhHU30ez//rIKOnp9Ojq1Z4gcd4/4smbrm1PyEBrY9iV5BCLvmDoWRnB9mffcARk9Bwpb9/bDzpSWEuq1tqadvF6bBRs+9L/vP2EjbszhXfKJXhGSpaRb7E5uoYJv4cPedeJowZSRf3Eop3vMv1S7syK92Bv9PAoTIvBo4cQM+ECHx0rU9/fV5xWLCUrGLeFl/CI+OZ0tud+pJtvLzKj4uHd6FHnI0j2fl89LWJm2/qR5AyhXHLqT/lDOaPRNLeUEq9hg6jx5M29CIG9uxC7+QwlyUuRbyto3It3B6iM9BYtJt169aydv0G1hZo0EUmk9a7N7179aJXy9ZbfO7VI5VOkTpU5evYvmUducVlmKw2zA0VFO5aTmPJEnLKa1CHpzBi3DAGdo3Bry2IuIJKeIg+4aKSUeFltWAzN9NQVsCe2gbKLXYs1maRIhZ0Ef5oNKcfANmmGjslknOFm1aPj68vPl6ep1kZStKWUAlh0/pGEuFlwFJWSHZWMQa1G6r4Ecyecy1zrpzBxFHDGTZ8OMPFdtFFFzFscH96p0QQ6pbPoaxqEgeNp0fPJPTVB/nu9af5avVuqsMH0CN9CBN6HF8B6UJU6EoI0Vh+lKycXHKKiqmoqKa43IxPsA+GompXO43Oz1O4kFV8V6qne0Ig/g4DNZX12EM7kRzl7eqOeyqkkEskkjaECr+ojniXGzBt2sZ2kwmKd+IflUJ0fAoJkf6u9QK0Wq2roVmr8yIgPJbEtAyKPl5McNpQ4lI7oDp2iE8e+4Yib09yQ3qKcxMZlhiE0+5ErVafPlxzznFiNxs5tPQ1HvtgER8tW8aurbtZtRN6D04jwa+CBmGRFzgiSevZl0sy4okPNHPsUCWlpW4MG5mMtxBxaZFLJJL2g8oD/5gA1DE6Fize6Prq2P4GcPcnKb0boa7VM05CmXff4Y5553yMKYPwDfGlMa+Ufy1P540PZ1Gx5wC26nJikqKoyDUSHKwXlcB5DK44zVjM5axZVc3g0WMYHiKeoT6HgOl3MqpzIEFBkfh5+aOsj6Msv6fY3XaTGZ1/IOEJHVzjPc4UA5dCLpFI2hgq3HTervETsdpKdmeXUldfSYVRTZ0zjMH9O7jGGvwg5+IvtRt+ER0IS+6Dr6WE8sJ97AhN54ZpaUQ3L+FY5kY273XQ86JBRAboWp1h9XdDmP9qtZbAiChiA43UWDwxBPZn8ojehHspvXLccNe6o9MpXobGJdoq8XvcPc60WtkPSCGXSCRtDpUQPk8vbzpE+FJ7cB1lVVUUVRloaLYRmNSdTkHKAKkfrGpllSx9SCx+AcF4qR14ePkS3T2F3h1DiAoEb78o/IO70DcjFT9lcN3vpONOuwVLQxn7t6zii6+WsnjZSvZl5+MekUzHMAeHdxdSbQ2hU59+9Ijy/n6QnxLuUcYZnHgsV394ZeWvs3xO2f1QIpG0UeyuGSkz59/B06+uZPmeCuzhHek+5RaeuuMKegqRVqazPjMOpbu52NSuPum/F3azQXgCR1i3fj1b84ooPVZE+YFM1F7BDPrbPKaxn72FeuE1dGbw0PiW1ZicrmmlG83i+dy8CfH7daNPpUUukUjaKMIiVeuISO5OQ9ZRio8c42hNJeX7vkObMIy46DDChPCd2Wg93h9dGLi/Hw4rtQWZLP30fa555B0K+t/I326+nAmhZmqO7meLPhHDvC8IHp5O0qBUgoXX0NRkxc1dRX3eLg7mV1LY7Et82K+bF/73/GkSiUTy21AWEdd3YtKtf2LEFSNcX1nNVubf/xGbN+dQ99umZj93NOay6uOPeenVDfgNvp8FVw0mQ5PH+v2H+fpQMeG5b/LmwaXc+sV3LNicRX7uQT75ZCd1RhtqSzVWexONml8/F4wUcolE0rZRafBP6Mewft2YnqyMEXBj7A0j6JoahU+bUDA7uduXs3PnOqq1TkYMCqXuu6f4x2OPs6VUx4w7n+eemx/hvQ/m8li6Dvdtn/LB50spVrmLMx1UV6jRGGqgfA9vz19HcX0z1l8Y8JZCLpFI2jzNhgpKK6sp00TSYcyNzJw+gC5xgWde3MVuxW5TVvhq+XxWOHDYjJQX5HA0N5+SagPmUwqruLC9mgNrdnJo51FqbRZK6iuosATSsedYLpl2BZdPnkDPbumMHDWOS0cPZ/SAgfTp3Yeh/WLw9jCTv3E7OdsOYXK4ERcfhqf7L+/nLhs7JRJJG8aJw1TJN1/M5/UPv2VbVTB/euARbh8We3yB75ajWsPpsNKYt5Tt5TH4hsSTluh3FparFWN5EXlr11IUEIObmw1jkzduXh24aHiMawHwH9/TDpajvDbrNt769gCFvYYwZuoULu+TQkpcDIE+OrRqJ24erTyr047TfIz3/vIgmcZg4q/5M7PHprgqp1+o49Iil0gkbRUnTpuJ6n1ree2tJaw64EmfEVdz98UJhLQq4i0zYB7/4JpdsHrfS3zw1XJW7Co/PrHWGXCYayjYsZb5f3mcrCotHu71ZK1cyytPriC3yYb1FHavYrFbo/qQOuYmXrthKqP6dCZEb6G6oozc4lpF7r9/rhMoKzZZKo9h65yINSICY2UFlYZm4T20fo/TIYVcIpG0TRxmrA15LJzzCDlrrYwbOYmH/zqcQLGr9U6HSgjF+X0YRe2mJ/ai93j8zhu5YVyHs5pzpyF/J5mHd/Fuyv2MHtCNfgMmcnGailH+H/LO5moMptNUBwfyaVi2nX1VDRgNSrjlvzz5xjzu+TSv1UrEKR60+nA20cPHM2aoP5Fl7/DA5/upNFp+JvpnQnY/lEgkbRA79SW72PTuDfxnRTaJM6/jsmsvIT0hgFaXsHQIa7l4Ax9tqqK4QU20rp6D337Gm/M+okwbin9kFIEeQuSFeDqUxSta2ZwqFXXHVpGdt4HsxCu4qn80QV46YW7nU1BXxtt7opmSEYG/l/tJFrDwC9ReeOtMFNXlsmbrSjZ++xUfL1jAEVsc3fqP5k+juxLt5/Ezq1kZxKQNjCY0PIaY6HjikvrQu3NHIv11ra4GdDpkjFwikbQ5mioOsXPNBzz9zNMYE67l6mtnM2ZAT9eSZz/HicNqJPeLW3i/ejgdu4/i8u4aiveu4W+3vEXfv9xKWpw7hs1LWF3WckorZEyeSUjZGrI3fc3yjPm8PiWeKF8t1Zkf8tWSr7lr91Q2vDiO5Iifrx3cVJHDzt2ZbM06itVmR+OuJbZrf7p3SyExyv/MjbK/ERlakUgkbQq7sYK929fywUffsmp/Mv3HzKRn5w54O000NDT8ZKunpqKA7F2r+fir1TSYGgkI0OPuoSUg3I/K+lj0Gh98NTbX8n+G02wmc7M4xo65EjzFc5ywiRVLV1m9yNWweYqghz40gUGjpnD77bdx2223if9vZ8aY/qScBxFXkBa5RCJpOzjMlO5cwouvvslT87ej8xzFYy9MJinKB61iebcc9gNWGqty2b92Ea98ls3Mh17guiun092zjNLMTxhxq477/28U08dHC7O5CbO4QGtBC0UFtXotxav+yzfLv2Zp+mvMm5p43CLfu5DFK5dy//7JrH5yFJ3Dfm6RX2ikkEskkraBYvUaD/PqnHt4a+EydjoU2Vaj0ZypX7VTnKrG4cjgsXmPcdUVwwg2ZHFwxSPMyL2WJy7pw2D3EmHlb+NwE61277NYIL7vcCJsm8k8sIp77HexbVYq8f46yne8y7ffreIN/d28d1myK97d1pChFYlE0gawYbOUsuKxu1m8dSOHXCKu4MBuF/tsp9vsLT1VotF7eOOpdWCqqaZg7TYmJPrRUZl/XKvF08fXtWqUbytbkNi8dO54BcbgbYvF/toaaupMmDFQsLOA3OWl9O0Y+KMZF9sS0iKXSCRtACt2SxVbPniPnYV1lJt/Wa8NBZWmNxMu7U/Pbr6Ub1rB+7OvIeLlDYzo24VwjNTV1NBgP0XXRfG9PigEvaaRor3beWfuctxHTKKXdy7lh4ooNsVyyS1X0y3EE52yAGwbQwq5RCJpA9hx2k1UltZiUboI/uIx6sIkV/vi7+8txLiazNWreeCK+dy15k36doslwP1sr+fEVFvMsd0rWFYeSYQtF5VXGNoOA5jSO7LNhjCkkEskkj8ATpyWeo7kNmGtP0TOoYPc86I/iz69mC5xvr+454gii2ZjPWaHsnqPDr2ubS/hLYVcIpG0fxxWLEVLufqWLKpL9zHuEi+MQ/7JTWnBBOvbtgifC6SQSySSPwDCIrdWsm3jQcprTATGRpHYpQtBnppfPEqyPSKFXCKR/EGwYzTUY7I4UWu9CfRte90Efy+kkEskEkk7R/Yjl0gkknaOFHKJRCJp50ghl0gkknaOFHKJRCJp50ghl0gkknaOFHKJRCJp50ghl0gkknaOFHKJRCJp50ghl0gkknaOFHKJRCJp50ghl0gkknYN/D/yhGoDIrnNGAAAAABJRU5ErkJggg==;" vertex="1" parent="1">
          <mxGeometry x="850" y="512.5" width="326.46" height="90" as="geometry" />
        </mxCell>
        <mxCell id="oiI1xpTamVSD6dDsBw7b-172" value="" style="shape=image;verticalLabelPosition=bottom;labelBackgroundColor=default;verticalAlign=top;aspect=fixed;imageAspect=0;image=data:image/png,iVBORw0KGgoAAAANSUhEUgAAAdIAAABDCAYAAAAoLYRkAAAAAXNSR0IArs4c6QAAAARnQU1BAACxjwv8YQUAAAAJcEhZcwAAEnQAABJ0Ad5mH3gAADHESURBVHhe7Z0HYJXV3fB/dyQ3ubnZi+yQRUjYe8kSEcG6qmi1arVWfe22X7W+nXZYX2u1VltHXSiiCAiIyl4yMoCwISEJgew9b+6+9/nOcxMHmABhiNDzw2OSZ575H2c9GkWARCKRSCSSs0Lb/VMikUgkEslZIBWpRCKRSCTngFSkEolEIpGcA1KRSiQSiURyDkhFKpFIJBLJOSAVqUQikUgk54BUpBKJRCKRnANSkUokEolEcg7IDRkkEslljCreXFQe2Mq2zSXU2U2Mnp1B26a/ssz9LcYMH85EnxLWvDOfkqyf8L1rhjMkIRhd180SyRkhPVKJRHIZoxFBi5/OwZEjO3hj6VL+veYgDXYPu9Yt48NFH7J9fzUuX1i1sYLqOotX9UokfUEqUolEcpmjIzDQF7unkePNx2nyBBKXPgL/2kO0Hiuh0yeUjKwkfH390Gi0XtUrkfQFqUglEsllj629Aof4l5Gdzc/vmEaGXzMhwYEMHj+U8SNj8T+6i9HTE4juFyC7dSV9RipSiURy2VNTuJyW6H5EXf8zJvhYObZhKfFT72TU1BsJOdbAwXllTEiNIjLYv/sOieTMkYpUIpFcxnhEaKFwVSepHZHcNjoej72e7SttZMfEMSTJhyabh82dI9AdK6C8up5as7vrVonkDJGKVCKRXL4objwdx9laORCnLpsx0QqWxmrWVk8nJDCROIOVls4q9nhqOdYGOo0WPx85SirpG1KRSiSSyxd1Cq5HT78rriF15Chi/LTofYMZcMOd9E9OJtjHj/C4WCbdOIyE1AziwgMJNkixKOkbch2pRCL5r8bjUXC7Pej1OjTSGZWcBVKRSiQSiURyDkhFKpFILnncljqqCjfy08ffprnV3H1URS9Cogh1InSqB84YU0g49/z+eaZkxhBplN29kt6RilQikVzyeBytNB7P4S8/v5sPtjdQ2dJ9wjsNJEyEDhHs6oEzJiQyht8t3MzNo/qTEKgqZImkZ6QilUgklwFuHJZaDi77X558ajXr9tbR3H1GJWPkJFKTEwj316H0tAmgEIOKx42trY6Dh4spKqsSirQfv1m4iVtGpZAY6NN9oeR8oHhc3nFpt0fku6JB43X4PeKERpSOBq1Gg85H7/15KQxbS0UqkUguDxSXcDoreOdHj/CfpavZ3Kx6oV3c+siLfP/Om5mSFY5OUdeWfhlVtbrxOJ00lebz6uvzeGn+h1gUP6lILwgK5rpiatpstLsNmHDSarbiGxCAn68Gj0PBajWSPjgek6/+kthpSvcHQffvEolEcumiujX6EJKzQjja2sC2XUXdJ6AoH4LCYhkyMYNQHy1a7clBCGy9L6aIRIamRRLjb2FNfimTb/ke2bGhBBvkxoHnB9Vvc7L7Pw/wt/dX8MaeGnTFy/nJw4+TU2OnoXYfeR+v5E9P1TDj9hGEBxq4FEwYqUglEsllhAafgAgi/Kz42yvJO6ROMlKXuDRQ4WOkNTCR6VlRXi+npy5DddN6nwBf3I1NtK/aRvLN3yNDKtLzh9ob4KqlpDWGzGFXcftVw+kfYmPBsq1cd8d9fPuGGxmVNYTMlEQmjE4kQHikl0LXrpyKJpFILiu0hmAGjJzK9d+azfXp4O+dJ9RKzb7V5Kx4jzWHm7E5T+7e/QKdIYyYxFgmjxe+k5Dirt4vlfQVdaGuNpC0YeMZM3o0AyMD0LTWovHMIi02m4zkVLIGD+Gaa7MJ8ve5ZBSUVKQSieSyIyAylSETZnHPzdNJNfrhpx6sL+b4lg+Y/857lDZ2YHX1Nj3EQHBsMsOun0FUsBFf7aXgE10qCJWjCyE+LoKIMD/MDdUczd1BUNZMoqNiMOm1+Bn9iUkIRae7dNSTVKSXJQqK20pLQzOtbZ04/1umk7ntdLS00tTQhkOk+ZuabLfTRmdLHfVtNuzS3blA+BKePJSp3/9fZg1MJTrAq0ppKDvM6hf/yIpNpVQ12+lte3pj5EBSpv8vYxPCCZVbBl4YPBaaa6vZl1vCgLkpRCcFilK7NJE15HLE48TdepClry5h5Zrd1Lu6j1/muM1lbP94JQvmraXCKf7+RmpSDx21Jez+8EVe21DMsUZb93HJeUcfjCl+DL/4xw9JH9q/+yC0t1j53V2L2ZpXibmXOqI3BhKSmEn/cCMBvlJMXhDsrdTV1bGlTMfVWfHECu//UkXWkMsQdT2cs7WcDbn7KThSg+O/xOlxmWvZve8wG3YexS7S/M30SD1Yao5TsmIJuXWttDjlJ7suJFpfI+GDb+Bnt41lzqgI7zFF6cTlmseb69ezdm+N90NrPaFR1zDKXt0Lhr21mvp6M2Xaa0iLCyHQ/9JVRxc15o6OJqr2bOKDxUtZvHgJS5YtY+nyZXy0/ANW7aqivt3RfaWkb6iLy500t1swWxyXxKy384FqQHRYrLR0WNF8U/t1Rdl43FZsljpcTpe6D4DkAqLR6PAJiGbcrLlcN3wsY7xHVeOlmj2r3mTtmrXsrrZ6j0q+Xloq9lPVcAjnFVNJDPUnQP9VSeVoLWPHxlW8/drbLFkidMSS93h74Rq25O+h8HABK99dwMJ3X+I/yzaSe0S0qe77vm4u4vIXN60lh9jx+iu8VtxIQ30t9Xt3s3/zdvIOVRGSOZqUmBCCu6bcnYDistBWV8XBgkMcr6umqrqa6qoqqnoMFVRWVlBa2oTWaMTgb+Dk8lKcnbQ1VHCgYDfrN2/FbgjG3xSEv7hQ3YHD1VzKgRoHNo+eEH9hSXXWs+ODj6i0G8QzTQT5nXr7MGdHPeXFB9iRm8v2nXsxG2MJ8tdhazzKwV3b2JizG2O/ZPwNPvicj4kNatdueymLVpQQktCfSVOGEHIGO5wpbrswbuoo2r+PLdu2U9Nhxz80msDuri1XWwVldW1UdWiJDvYR72ln/9oNlFQ0YTOGEx5w6hVfbmsrjRXF7MrNYfP2XBoVE4YAIz62Bsr2bmXVxu24jaEEBAZj0PU9H9zmY3y6rZTyFl++NXcq4SLN37x5Ih7aq4sozvuY4ym3MGlALPHBhu5zXXjsrdSWl7J7x0625u9CH5mE0eCLr8gTj8NMZ2MZO6sUjH4+GH2cNJUXs+PjddT5RWMyGvDzOXP72OOw0tlwnL0789iWk0dZsw1MYYT42Kk+lMOmLTnUdjgxRURj7EHQ9Q2FtppSjh4tobCsnLqampPa6omhouIYVfVNtLtNhIi6pTvrwtRgDOuHye6gs7aST8trvUftTZVYrL7oTQlkZ8XjJ/K3L6+4EHLjQpSHx2WnufwQh0vKKCuvpFbIy57y+7NQXn6U2lYbDo0/oQE9jFqqS1icrZQcOERJaRnl1VVUVxynvFWcstZ7fy88coza2mrxrFKa7BqsHc00Vxaxv6iERrefV5bkb/iA5bn7qUiazM2jUogQ7/I5qd27LfUc3vkpG1d9xJptO9i1K5/cRpF3UeFEOyvZ+s5rfKiOXZniSYuPJTEq8KJ4hxdPkSo2oTj3sPn59ygYMY6sxGiC9++mfFMBxaaBfPfu2aREB/YoUBVLLaV78nj3teXsLC3k8KGDHDxwgAM9hn3s37+X7Xn1RKYn069fGCf3IHhszVQXF/DR+wv49V+expk4kqTUdOICtV7hX7n+LRYc1uDyCyU7Rou55gD/nvt98vT9CUpJY0DUqfv2rbVFFGxZw3tvzePV/7xLVdIUkoM7qNq/jgXz3+atxesYcOUNxIUFEnA2HxUWFdujBu92W+qfTlwthUKRlhIcn8yEKwYRrPvs/BcukNp19WUUV6doxEfY9OES/vrM8xxq1RI/dAIZYUJBKi5qc5ezqqCS/dZwJqUFCc1axXsPP8bqPfVY0kYxJjGw+0k9Y2+ppHT3p3zw3jv8++//otAvjZDIAPQNu1jy7hs89/JCYUCNISklhbDTTfAQ6VDT4vF4utOkwd1WyuatJVQIRTr75snCePCoW3d5z3+W6pPTfKHxvlvE0eONh3rERdvxwxSuXUlx2k1MzIwlLsj383So13g6qykUwmPBvDd58sV5hE24kdToEEL8wFJTwpH1i3mlOIz02FBigywc2fQxrzz4GHtTZzAgMZLowDOfsuHqbKGxeAcffbCQV194hW2VTpS4VFJ0pXy0+E1eem0hDUoQacPHEXNOG7eriXdRlvMJazesZ1XOHkoOH+6hvX4R9uzZyeHyGtpNGQyKC8RXfw7v1xgIS4qEcAO5eQW0mW3eMmms6MBs1pI2bSJJohz6YsheCLlx/svDg9PWQdG6d1m2KZecgv0cOXSox/z+LOzencvRFgVtSBIDY3tq08Kjt1azYdECVnyyivU5uRTsyOWQPZ4wTRWHczawfMkn5OzaxbatuzEHRqO1iLYvyv7VxVuwRWcR0FHIzoJico/riEtIYEh6GjHBRvxPGo/WGQLwsVdSV7SNxQs3cbD0GOWRg8hMjyXVVcmerVspGnIXd18ziUkZ/fC7SJbzubSMc8NjgaQkIh55jg8f+wmP/89tTB2eyaSRg3nslScZmxJBUC+D/B6nDbvNTLv4XRUZp0uERqcjIDaOwCB/0Ri7D34JXUAUCZnDmDV7NP7+vqLxNlFRL56u2LE2HWXxz54Xjb4ch4+4WaNHp/MnWQjk2nYbtRZn91N6RxMYz6hZN3Hvrbcyy2Fndd52li38E//K2cXGsCu55zv3kxAeLOJ2NkpUCCinHZvFIgSCGYv4abXaaW9rw+l04XS46Oy0YhX51dlp7rpGnHf0MFtU6xtEUNxgZl07nn4xYZQ3dHjzQm2MeOrY+OwC4fnkYRPekXfwSORDjEaH3eKgtO30k2Y0/hEkj5jOfT/7KXcEBlJ6cD9Llr3AvE/e4RnnGG6c+5C3QRnPxJhwOXBYu9Lc2dmJzWano6MDu92GS6StUwhKq1UYBpbuNIt8sTvd3crs60IoULfwSNQ4imA2i3IQ8bHWddK6U6GlU8Rf9UC602E2d4ogBHxAAgNHjWTs+IE4RJx3FtXS3CHyVzFTWZDP+w+/SINdGEuqYtH4EKD1I1YkrLDJQpso7z7hayIwcTh3PPz/uDMjHY6X8f7Kd/jgnd/ym5o4kqfeyZQx48/Tx65FXWy1C48bITDPRNn7YvALJDI6AO15WAqhNSUxftLVzPvjbYR/PrGlnIqmAhblVWN19G28+oLIjfNeHupQglN4znZ0ik7ImB4E4FfwxxRoIiRUuNE9Ido8QqalJphpqdrKovcWsWzNNjzRwiMUCj4z0IpuzyIWLFjOkiV+RIh8HzkoXrw7jNztwYzKTGXE1Ln89v/+w841y1j/1weYMySGsIAe4qb1J2n0tcy++nvcLcSCWmrK2uf45Lc38qgwMhdl/JrX/mcOV2dG99g1/HVx8fbaFR6O3e6gw+wiNMyXgtd+yc4qX/RD5/Lta0YRYtD12s2iuGxYhOBpbO4U9VOdEHCqDOzyRhRNAGERQQT49bzIV3G101i2kz9MuY3qm3/H3Hvm8q3ow+xb8RAPPnYE7Zzf89APbufeycl42qrZ+cwdbEr9McPGz2RWsh5rSw1FZfVCacYQGxNFdOgX1qbH5RLWr4OafZtY+czDPLbFju/gm7jz1jncPnUg/URDM4WHCcuribrqWuo7PAREJnoH4H1OaYV7sLVUs+339/HavgaKPt9aVDQeYS0fLTfjGxAklGIovurGLN0lrZl4C5Pn3s0zk2K6DnwZRQhoSynP3vIgeb5ZDP3hozw2yZ/j6+7g0cfzORR0A9c88DBP3joEvbj2wGs/YYstEd34+3lgpDqZw017bT1uHz8MoaF82Wj2uN3C83Jgba1h05Pf4/E1lRwNHs/0a7/NL78znlidhqDQEIxCKClCCbY3NOMjDKAAkT9ftBE1EQ6R/4/w3pqtbGzoOqrWAbe9jdq6dsx2PYkpMcI6/VLVTh1J9J3/y7wZ8UT2MFxwIXC1FrJp/Yf86omFn2W9QMHZ1kLzsUraYvoTGxqA6fOuWDVe/fl/Tz3ClePjOf7x+zzzwB+x/Hohv75lFCkd8/no7af43b876Pc//+Kp+67kivRQWg9sIH/+42wc9y/umiC8t6heBGAPeL1lIWg9Ik9z//0Lnl+0gU/ahCcy/Q7+cN9UMkOMhAqhGiDCuW/uIwyc5ibMVhs2YZudThWooknrY8AYEi68cXUD8+4T54DH2Uxt6RYenHYfW2sbaWE0E2bexd/n38cI4a32dc3o2cuN6VyZoKWxroGWBjMhySmEhQbjrzmT8vBD5wPmxhPvNfZYPmqPiIuOhno6nB7UpbOny3e1d8THGIgpKJigXgvdg6V8Ey/+3wv8499LqQ+KYNTDb/D0neMIOfhP3nrhTzy5Rn1TOH99721mp7ZztGAnr7fM5l8PjCM22EAPnY294BbGZymHV73LTx5+lr3NwkkQ6R88+WrufWoBtw8OIUi0ofNQPc6ai9e1q9Gi1/uIxumkOvdlXi0S1mDGFK6eMo7EYF+vw9MbGqGEHULQNjY0CmveKjwsYemfMtjo7LAKY8+Er/CmejJcNGoDcttpzp3PTtMIouLDCLZUMH/hfmH011BrGMqA9CzGp5vorC/j6derSZswmeHJvpTv3sXf/72J6OwkLEWLOVheRYUmnozILmWqUffy1AlB4DFj7zjCktW7GXnNd4XBMF0IwihMASK9LUW8/Mo6Cqs7MJnaqMt/nc2WFCKCTIT69zb2qHZtqlZ+G0QmEZuSQcaAAWRkpJES5cvxSgdR/Qcw+corGDZAnMvIID0tg+xhIxgxMI2ssBPH5ryIjNcKxdVSsJxDNj/aozKYENXE628W0NguhL9/LP5Rw/jWuHj0ncd48/1ybKYBXKHuYWovJ3fV27w5fxN1Dl8SheUZ+KV22JUPwpDRCAFpLWLttoOYkkZw0y23cd2QWEJEWn2VVo7v38jHS5Ywf9l+UsaPJMQoBNwJZebB3NKCOyCc8OSuNKdnDiA1xoS53Y1DF86V181keGYGA9Q0p2eQlT2YYcOHMkooGXWs8etAcQuFYXPi8JhEHLvyf4DIk3hhOOpbyrBlzGTy2BGMGjJQxDG9q+wyhzBu3FDiokNRmo/TuH8lm0JnMDHFQ+XBI6zffER4Qq2Uacczc3QaaWEOCg8e4/UPrcyYO4uBscJY7EMXqGqAqHVTpxMeojCg9hw4THWnkevu/Sm3jkokNjwIo5+I75k/8hRocHY209reSnN7J7Ye2+qXg7hGeORO4YeoY6Ta86BJLc0VlOYuZ8GKfGqtQYyccQN33X8rM0dFebsF+/qGs5Ubo4SHZrTWcmzXBp59+ShR6YnExYd643D68tDjaq/66r09Rl4dr1VwdDTQ1NZBu9ly2ny32cQ1bqGYdH4EG3uTPRp8/E3Y6/ZTfzSXA/V6OpviGZFlorpwF+tW76CkVTUfLSQMHoTtkPD4j1kZfNutjIo19nEOhNAVfv4YQ4Noz11ESVMn9VZhqAbGoh8wiekZ4cLY1l1URfr1mOa94LK10li+l3e2H8PWfw6DRo5hYOTprWmPtZGjh/J44731wm5T1cnp8BVW3kDmPjCbkcGmrl1OvoLwgPV+hMVpaGs7zr6clUREiUaceifXpZipLDNgtTjpKBeW0fuLqQ+9gqS4OAzFu8n7aBMHO5K5PSYOP7OGgpwcdh/3YUzqHYSLevhZ++8SWl0edHpCMAmRAaKKCA/F0k7pO/PZc9BAqrBcY2N01B1tZNU7b5Mc8D2iggYI4dj1jBPRoPcPImX2ncQIgePdqEU8W/HYsZevIX+PlrgRE7n9BzeTJNqlelqdJ+AbEIgxKND7hK8iIqvxIyhSh6O6axJQrquWxojrmTDOhrs2mPZ2J25LK4UL5lNpTSArPpt0oRyUVqE0hIJYv+EILaY0pt/Y/ciTEFEUea3+T0OcyIOMxJAvvvAgvBCXpYmyooMsXuHipkccuLtWLXSjZqaeuAmzuXq4jWlqD7X3gRocVVvpbPPHVe7Hrfc9QJqwE9T2qva56IWH7B8mvF1VI3jc3jWmQp2jP0WDdrtc3mdrdb00UjWu4hrveWEknHyN1i+ClKyJPBA7UvzRfUzroqZgDeuPbcIx8TpunDOMkXEBXi+gKx3+hIaa8BcZ4mv0JSjaSW1VEbvW78SkCyU46wauT1tOQbGoNw4ndQV7KP50D+bEWQyJDfH25JwtWnGr2msXEujLsPQI/M67cHJRvWsVG/L3s7tW5Fv30d5RCIlNY8iM24mL8BdldfZpU3Ga6yjZl8O8d1ZQbLGSOHoW139nJtdek0rAWSf0bOSGUHyBBtGWLFgbC1ldEc8sm3KSsXiq8hA55zz1vV+gCD0vvMGN8/n4QDOVwtA8fVI9xA6azFjh8SVEfHUc93N8w8gYMojRE7NZeLCYpj3rWLGwSihfEe+EyUz2O0BeSSs71q+hTJ/C0LQR/CwtBMNZaB21V8/WaaFZSSQmxkyb3kJ9VTlrF73N9uyfMjWjH2FG8WDRJtXZ+y5FJ4wR0XbPulz7xnmxM88GxWWlseIg61Yt4o3WKVwzeBhzUkO6T55aNaozF+trStmSl0+eCPmnDbvYubORNqEAur571wui1mr1gSgNh9i1eR0Hjtcy96EbmDxmHGHCe1YX0h/O+ZStS/L43sPCy8sOonbjNuryDnLtj+8gOyGOYVfeRYxHS+ua9yhsEw2qOykee4co+FLydu7B4XBQUW+modUiZLqDjvpqtvztTdIGpTNp5kSyM0cx5KofoPv4NcoKC6kTDaVnREXR+gil14/o2DjihGKPi40lrl808bHh+PkFYQqKICY+jhhxLlY9L+IYGaZ6LaeqYULZ64xo2qo4vnMtH6zM56rvXsmMGVNIDA3D1lhJ+aHtfCI86PFTk7ny6gEE+fjjH9qfMZOmEBaRIJ5g6LFyebvlhVeQl7+L5uYWkQdWkRcdosiF1Wx3oviGk5QxjKwhI8TVAaqY6qHhawkICSdSGC5fpDnGm+agoGAMfmEnpln8Hh0tzqlf/dC4aa8spGjvPg4WVWNxq6LmJIS14bY2CU9vL/uKyqhq++oHoRVRbtb2WnbvyOfgsVqaexjzUi16Y2C4N8+98RQhRsS5X0Q4EUE6gsOjiIzqJ47FfCkdoRgNPmoJCL2qeu8GlIptrP54LQ5/H264czajs4bga7XRUrmfXas/paGshv/53VXEhxjwCI+vtqKKclF32zrbaarcy+GKaqrbzFja6ykv2ktRZQsdNtcX6VaE4DHXcmD/fsrLq+gQaTlS2SqMBFF/hbK2drTSVFvN0SOVtJjNNNcWUVpRRklDB04hpKuL91J8vIaGDvtX8/Jz1DNuWo8foKRgOzt7bKcnhx2ijEoQsh/hVJ0bbit1RXms+3ApL35SgjskkevvvYM5syaScPZatIs+y41o/FWD1yncAEczUdcMJSIuVBzrft4py8Mlfgpl0du9X0EoUqF0GwvzOLQzhx095vPJYSel4r2W02a6jsj08WSMvZYYf4cwWnNZ+u4iyl1hzPnJQzw0JwuTqLMHP93APhHnzsnTSBRK9pSipwc8QmY0VhSyZe0K1tquYsjEcYzPjsTUdBzzxjeY/8FWDlW0YHe7cXQ2UXd4B/k7Cqlt/vp2dbtoitTZepSt6z/kgT+8z9jkUBJDhMWpnlCVqLAoToU+LJMZcx8RynHnGYYtIvyaG6ekENRrIWrR+RiJGT4a/5pCCpVUSob+iCuES6lxa3Af2kDumz9jQe4Syn/+ElMyoonWt1Dpbqdcr6NfkH/39HwfIkUFCxUVvrSpE5fqaQgsNXvYtn45j75ZTGuni/1lzZTVtmPtbOV4WSE7nE60RgOBfmpXilY8xZd00dja2kUlsvTty/4qok512SPq67uicIaoadATkZFNkMdMbZ2ZjWP+j9ExEYSI9DmP7eXoB3/mpX/dx+57/kzm+LFkCKXwGTpRiKpj1RsOdQlN7rv88j9CSR0zc6yuQ+RFk4ivk+rKJiwWISBErTwb58Mt0tmd3b2kWT3YQe4bv+BXt87lR794laJOURdPutYjjLyO0hX84if3MPeXT/Pa1qruM1/gMldTlvcG190wh3ueWsSqA43dZ06HImKhjoCpY/dqPe+tpWvxC40kJnsQur3ryIm+CfuAGxgSqMduFgbYjkV8+M87WeHowH7Xo8yI0eOnc1G+Zw1vPf0cT/7pDTYfyOXDZ6/i9qdf5oVNBRzc/i5P3Xsl9z63mh3HWrxvV/E4LLTse59/LMhhxY5GmkSdyzlYi10I68aGJooLPuWj1//Now89w9o9e/j4zft5+Knf8NMl+dRV5fLyj67iR395lcU7Kk+xjk+tFAZG3/8cf1vaUxvtOSx/60XunxCD6VwHaM0lbH5vKe/+czn6gBAy7n+Ga2deIbz4Mx9P7pmzkBveZQNuOmoqKBfe2reHRZIQ/qU5FacsjzZaW9tp7eXeryLqUXA8M/60infW9pzHPYU3/vpLrh98QldQj/iGJZKdns396cLs9QrwEaQnjOPKSSMYPH4iPt2TyqYI4+H2Sf2/6HnqA/bmMjasXs79Ty7knmd/xKPPvs53p94s3oQwZttZ+qe/snbbfo53WKg9uJb5P53GtdN+xHvrDlDfd9F5VlwcReqqJ/fdxSx/8i1s7S18/MSD/PGNj1hZWE7xlg/52zVzWFZQSZ2lR2l4gVC78IR3FxGFj2EY1w0Zw4+npAmloMc3MFlYnM0ccAymNuQH/HxWslB4XVVC7Vq2eQV0twjRhxKdbKJffxvHysvI+eQTtm5ewV9eymPFvjQWbviQ5++OILjxENs/nsfby9/gie2N1DmEF+QVbeJZWoNo7FFkjdIi/AE6zOpb+orqIalCW22yfUWHMSQUP1MWQ+PH8/RNQwjx98XHGIPe4KbKbWSD+1c8cPUgMvqdqhGrqDFo4VDeFmE4reD1RZv54d/M/HXBUl5+dBIj/SqEV7WUpYuf5A9rSyhqtJ1DpezKP1U19a6ihEVvVidjiWwWsl2dxPgVxa/eKLxjr1ZWi9krIE5CPSe8Na+1op7vi4RQH90GqqPb+0dIhDHlaxT1MU44PGP58dTRXDc4RtRDI4bAeDTaMj61Xkd46k3cNk6dNKYmwofY+Bg6qWXx9pX88YMSfAd/B9/9a/n0zflsKNQz6tY7qThsp72lieOFu9m66kNWblzNtx8uYurdf+D1Z77PbRnN7F+/gdVL/sLTK/PZazYQEKqwfu9yHns7j+qgCZjaGjny1rO8vLSG7JvuwGoNo6FCKHhv3L9JqDFqYtMrz/LxqhUcDksjZPJPefy2MQyKC+q65Jw4O7mBu0MoxWZ27taQJTzK0AA75WdUHtvZWFLt3Uf7i3vPZAb0hcJIRGImE79zIwajPwmzx5M5diDJQn6Epw5njN6XsPjrSci4gsyYvsfTUb+DV1/9F7/+2+vYRXvblLOPw3sK2N1YQ4H3ClXuFvPqoi18vLWka0xdXc8qmqXaNa79mjTcxVGkWj8Sxk3n1kd/wwt/f5z7Z2ZQuXUh77z8N15fvoTF+/bT6nLiOYVnc0FQnGjsBWjGDydj4hhG9fP3TiYIjAgRCmQI40Zdw23XTaN/mB96VQqLwvI60F03dwV1ElW7FmOTC421jjWvvMxzT/ydstZWJlw/myvHjGP6jFmYzEVs3nmE3NpgZg4TjdBHHS397DkaNB5hSVZr8Hfq0Pd16r+Ig9YnnNHDB5KVGoOhz/ko3u8sQjMgnOirZjI9yeRdrG4MCcQQMICUpCu5/64bGRwfSoB3OvCpELnjaiN36SJe+evfWbs1l/G33cD0ceOZPnUG8SYbBwu2M29fIBOHxBETdvYeglYXxID0VMYOS/WuFf5qstUjJgbd+EMe+OPv+fH9s4gXbfvkYVKN3oAxcRI//Mmv+P0P5jIr66uWuc4ovMVBc3jiz0/yyNypjEoM7j5zOjT4hPYjasQMRsQEnXpDdE+LKMrDaOfcIMoyg/RQYWAZfDFFRgkBMYZvzbqBa64YTmzQZwJKI+qluvynFWOglilXjCI7MQKTrYGwcAP9s+KJNzSTnB1BkMlF8bYNvP3U33nx5XlkzJzC1GlTmD55GtmizjTsWc6LORoiomMYmOCP4mnH4elgwoThDMuIJ1xrwShC6ugsEvzbSEo1Et4vsEeb4+Kh4LK1U7rhPyxcs4UtR/2IS5nGzx+cy4RkkQdn5OW6aBMeYIfZ2rtB2le5IXBbmqhp8rC981skhgZi0nVSeEbl0Y+0MOeJ9/Y+QPo1IGSdMPZSJ11NksGP6eMHMETd3MLXREBkBjOy9Ey6ejQDBw8g4iziqQuIY/zU63nsN3/khX/8ne9PHUBGyiCuvf1BnnnlFV4R8vWVV57j8QeuZlJmLFFpY5j1q3/w16d/xLRhyQR/TRXy4szaFdZaUEwCaSOGM3JYNmmJ0SiWTny1CjpTKIH9s5gxcwZxwX2d3XVuqBsZ2JoOYc+YxcghgxkaoU5LUtB6Oml2pDBp8hhmT039YkmHOF786XaqK1pIuG4umaHCa6Odw6s3UXS4jrDZ12GqK8fjH8wo0ShmXXMFsUZf/AICMdu1BMVlMXzUWK7P8qVg3mLCpswmNTuTGKMHa2sV656dj27SHFKHZBEXeOY1oivHdAQER5GankRMVDB9XQZoazmCPSqTpOFTmRZn9HptGncnZlcUSRkjuXvuUEJ8hcLuvt6LuhFEWzHvn7CjkmppOKgsLKNdeGAJg4cy984b6R/ih9HPgEMx4BMYLd4zk7unphFtMoi6UEfRoWI+3tzALfdeQ2yI/xnGX4OfMYzE5AQSEyO9E3ZOrD3qX3qC41NJyc4iIy1OCKGvjsGqH3fWBUSSmjaArLRk4kKNX5m0oCpbv+AYBmVlk5kcS4SI98nX9IpOjyEshoT+GfSPMmHsxRhx21uxC2PMNeI7zBwYR2KgDxohtNUx3GZ3NrffOp7RWdEnGEpNhYvZcKQOa9wV/PL2qzAeeIO8xkgGTbmGyUkB1C15D8+0O5iYGYGuuYGGhg58+yVy+323M0jkWYifL4pPAC5FT8yw2dx8RTZJyj72Hcxji3Mov/vxXSTWr6G4sh1t6jTuvGECjW8+jy1jMtkjBpMR3vNUvouB29ZGY1k+r//rHyzNKUMTM45v3XIXD35nHFF+ooxPV16KUJ2uBpYv20Zdh52oxFjEbV+hz3JDYK3Zy67Co3zQOZYf3pJJhFGhuaLmjMojRXuMPV++V53R3P3ci4FWr8fHGISzxcEV11zNoAFJBKkf5NYJo08Yg9ETZzIoO8Nbf/uK1jeQ2IRURo4cyfBhQ8mICSUkOJyEpDTvsc/CiMx44sKEwR8QSr/MoWQPySA2oucNfS4I6jrSbwJua7vSWF2uHD16XKlusSkut6f7zNeHx+1WzE1NisVuV5zdx8RBxWVuUdosNsXiPClO7iZl41O/UB6/dpby/J5WpcPhVhRrifLq//5EuWP6zcrS0g6lzdyhdFodiv3ze9WfDqWzs1Ox2OyK22NV2qsKlKeHRCt/fmGBsqXKqiiuVqWheLVyXUyK8sRLS5X9jfauW79GrG1t3jh++c1qGZnFsXa7SGcPeJwiTaWLlNnTvq889Ov5yvEv3ey0WxWL1aZYT7jXqdhsFvFMq+LqPqLiaNyjLH7pCSUy5g5lQ2mT0v7lk/9FOEU97BD10Srq5We55nHaFUdHs9JsdSr2E9pIV73a8eIc5cePP6Tc/0mZYmkuU5Z/P0Z55LnXlKUHKpXDy99TfheVqbyxbo9ypMki6p9NsVlF/tvciufzR7kUp9OmtLebFac46BFldOSj3ypPPTpVmfjWYaXO3Kl8+sQc5S+//5nyj63lSnvFPuXJ2Ezl388vUPKr2r/aRi4WLpvSUJKrLH7yLiUiJEAJjEpU7vnN35Xcys7uC06Px2VV7FWrlTlzHhR5Ol+p6qUZ9lluiFyt+vQ/ykt/u08Z9foOpbCqTXE4XIpLlO3py6Pney82HhE3W3u7kHPOL9qyOOYyizrhEHX1G1ItLhQX05A5Aa1fIOHCS+3fP5GYEMM57Kt59qhLGALCwry7rnzu/3m9kxCC/A3ePTRPQBtMXJaJwGwbK/dXYXG48JibqLSHUuk/mPQYE/5G4XH4+Xxp1yL1pw9GoxF/g693VqZPQATDZvtw2NrEoZpW4cBZsbU2U6AZRUCE8HY+77r7+vALCvLG8ctvVssoQBz7bO/dk1FTptd4urxXrSIs0q7OahW9rx/+wgP1O+Fe4ZkZ/MUz/U4YYlTXmaqGpPocrerRfmNq6deLXtRDk6iPfur62+5jGr0vPqZQQv30J20e0DUWePgTJ+mtkdw5MkJ4s/VsXaWQHRnFkASod3jY5ByDuySfsopa6mwi//1E/gt3/4txYh164W0HBgaIslTnDrdRvtOCZ1cgj05LIdDQxL4cOwG2EKZkB2KzN7BRmUBLRRX1x4opbel9utHXidtcwf5PV/P4r96ivc3KiNt+wZwbb2ds3OnG9L/A47BRt2cdjsA0gvtlEd5LM+yz3MBBQ2EZ2t0HuD28jd35x2hosqATZXv68uj53ouNuqTPEKhu46j/oi2LY7qAQPx9RF09OQsuM/5LRdT5QkvihO8wedAshjx1D+8uW8zfHvozOqud+x/5LqkGVbF0X9orogIKRTrmwTeYsmsjDa8+wT9feJM3f/w0Dzz+ANPHZXo3X/+mo+7Ta64v4pNFG6ip2EzxkTzy8kvpVM91XXJGeCw1HMzfwfaN67HZtrNh7U7Ka1u9k7okp8Djwt1Uylr7ZGpNY0j176SzppKVrnvQG1MId3fQ3l7EYWUbBxwxRAQH0890+ubvaauioLM/OwyzGRzhQSvKeLt1Oo2G8cTrbdibyyn2bOSAS4/WP5L+od+AyuppZu/8hSx//CWO+QfR/8bfcv+3ZzJ1YHj3BadH/XBAa2ker/1hOU4/6JcedoJRec6IZ5Yda+aNv+wmMj2WgNCA7hNnwLncK7kgXLwtAi8XFDvt5WWUbsmhMz0Lx/EKgmKTiRs6lJgzHhMQReDppGz9JhqcYPU3oVTWEjN9FvGRQZfGh4U9ThyWFo4fPsSBshoMYfGkDxxEclyo10o/U4NUcZpprDxOcXEppfVmMoZNIK1/DCEBhhO8VslJKG4UWx3rNrcSEh3GkMFBuJpr+Wi9ldGTEkmMclNVVsyGvCIyRk0jKzlS5KnvactFsTeyZ28z9W0+TJmRiG9nFeu3dBLaL5yhg01eRbps9Q6haEaQmZFCXJj/GZf1hcFFec7bvPXca8xbuI3qkHCu/fVL3DtlIBmn2lzgc5xYmqo5uGcnyz5cye512+j/4DN8/+5b+PbQyO5rzhU3jUd2ceRAKWWOTK6ck024yZcz+17FudwruVBIRXpeUFAUdecNO/j44aPuDXtWus+N0+7A6RK+rsHfuwOIbB+S84Xa1N1uBf352e/vc9SPBKi7yKjdexcTdZOMzpq9zHv+Cd76YCP5JW0YAkyM//adDAw3oc7XO72wc2FtqaXo4EHW5uzzHvnun+fxg9tvYnJ/k/fv84F332lRHupEnb6WxrncK7kwSEUqkUgufTxOrK3VbF70LL/95wfsPFTRfeJcUNVUMP/vpbe46+ZZDL4UxlgkFwVp0Egkkksej7WJuqIN3Pu7t8+TElVRP+owhZiQWMJMUolKekcqUolEcmmjdFCWt4VX7/odnc1t3QfPB+om8TEEGvz4mr68J7lEkV27Eonk0kax0XS8lD0rP+Wo+PP8LcDxEbp0INNmZpOSFHLZL+GQnD1SkUokkkscD271yx+O87yGVZ08pdXjq9ddlHXtkksHqUglEolEIjkHpCKVSCSXFV6RJoIq2Hr64PqpUDxdXw8Sd6KVXqjkDJGKVCKRXCaoosxOc0MjTXUtuLQGItMzCNNzBh8U8Ij/zFSUHKWu1YU+JJqUtATUzZ/kjEzJ6ZB1RCKRXEZosFTv5pPFG3lzwSEcQoEqp1OiigNbUxlrfvZLNmwpoqathqLtm/jlzzZS3mLzftlXIjkVUpFKJJLLBFVj6tB0VlHa2sI+s4/302Wn06POzgZqCzfw1oY62gkhLiGOEKWNxg3z2FLcSKOl75/Gl/x3IRWpRCK5jNDiamvElBhA7IR0QlQJ5/GI/3oLCtbmcioOrCAn6waSBg9mSOYQhg5K4tuDcvgkr4zyBusZbC0o+W9GKlKJRHKZoKo7B8dycoix1jE9KxK300Z7exutra09h3YzLc3VtDfm0v/KJEL7BaIX/0wxUcRPG8SmTaVU1rafx7WpkssRqUglEsnlgeIGZx37D9lwdhpJ9Klk35JfMPuqKYwfP77nMPcRfvhUPpXbweTwbsHQ9SiXE7elBUWxib/Ub71KJL0jZ+1KJJLLAsUtFGj9Nh68aw0J48byg19Oxa/+AJ/uqcHm6GWcM7Af1BRi+fAPrLx6IY9cP4qxiYF0lOdQsOIv3Lr+Wv716LVcNzb+cyUrkZyM9EglEsllgeJy0Hp0B1X903CnZhDq64veEEVqaiYDB2aRlXVyyCQzOYaUhCBCBkRQrXiwerq9z27/IiIxDKPRVwpKySmR9UMikVwGKLgcVqrztxKSDab+/pjrGmk+doAdeTvIy8snP//kkEP+7kKOtwuFOWQgZWWNtHTYcIt/tnYzTcVNZGTFEBriLz8qLzklUpFKJJLLAA8um5mSdQWMs1YR2lzPoeIWfIyhhEVEEBERSWTkySGCmOgI4uJTCI8YQ8DifFpKa2m2NVNXWsHOJXUMiwoiLMC3+x0SSc/IMVKJRHIZ4MbSdIxPfnwFLxRcwajv3sdDP5pMop8bq7Oru1bdg/5EhOjT6NFpFdzmatbPe5ZV9oGEa2qJcDezVzeLx+6bTlJ4AAbd6VajSv6bkYpUIpFcBii47GYq8ldT2BhFZGoGWYP6eTdkOBM8LjutFQc41ChUsr0To68Od/hAhiWF4KeXHXeSUyMVqUQiuTwQosztcoFOh7aPm9V/hstuxalO8NX54G+QX/OWnAnw/wE5eakamNbPnwAAAABJRU5ErkJggg==;" vertex="1" parent="1">
          <mxGeometry x="849" y="610" width="466" height="67" as="geometry" />
        </mxCell>
        <mxCell id="oiI1xpTamVSD6dDsBw7b-180" style="edgeStyle=orthogonalEdgeStyle;rounded=0;orthogonalLoop=1;jettySize=auto;html=1;exitX=1.018;exitY=0.125;exitDx=0;exitDy=0;exitPerimeter=0;" edge="1" parent="1" source="oiI1xpTamVSD6dDsBw7b-163" target="oiI1xpTamVSD6dDsBw7b-176">
          <mxGeometry relative="1" as="geometry" />
        </mxCell>
        <mxCell id="oiI1xpTamVSD6dDsBw7b-176" value="class-1" style="ellipse;whiteSpace=wrap;html=1;" vertex="1" parent="1">
          <mxGeometry x="1490" y="115.5" width="120" height="80" as="geometry" />
        </mxCell>
        <mxCell id="oiI1xpTamVSD6dDsBw7b-183" style="edgeStyle=orthogonalEdgeStyle;rounded=0;orthogonalLoop=1;jettySize=auto;html=1;entryX=0.5;entryY=0;entryDx=0;entryDy=0;endArrow=none;endFill=0;dashed=1;" edge="1" parent="1" source="oiI1xpTamVSD6dDsBw7b-177" target="oiI1xpTamVSD6dDsBw7b-178">
          <mxGeometry relative="1" as="geometry" />
        </mxCell>
        <mxCell id="oiI1xpTamVSD6dDsBw7b-177" value="class-2" style="ellipse;whiteSpace=wrap;html=1;" vertex="1" parent="1">
          <mxGeometry x="1490" y="230" width="120" height="80" as="geometry" />
        </mxCell>
        <mxCell id="oiI1xpTamVSD6dDsBw7b-178" value="class-n" style="ellipse;whiteSpace=wrap;html=1;" vertex="1" parent="1">
          <mxGeometry x="1490" y="422.5" width="120" height="80" as="geometry" />
        </mxCell>
        <mxCell id="oiI1xpTamVSD6dDsBw7b-179" value="&lt;span style=&quot;color: rgb(0, 0, 0); font-family: Helvetica; font-size: 12px; font-style: normal; font-variant-ligatures: normal; font-variant-caps: normal; font-weight: 400; letter-spacing: normal; orphans: 2; text-align: center; text-indent: 0px; text-transform: none; widows: 2; word-spacing: 0px; -webkit-text-stroke-width: 0px; background-color: rgb(251, 251, 251); text-decoration-thickness: initial; text-decoration-style: initial; text-decoration-color: initial; float: none; display: inline !important;&quot;&gt;Classes(target)&lt;/span&gt;" style="text;whiteSpace=wrap;html=1;" vertex="1" parent="1">
          <mxGeometry x="1511" y="77.5" width="60" height="40" as="geometry" />
        </mxCell>
        <mxCell id="oiI1xpTamVSD6dDsBw7b-181" style="edgeStyle=orthogonalEdgeStyle;rounded=0;orthogonalLoop=1;jettySize=auto;html=1;exitX=1.018;exitY=0.125;exitDx=0;exitDy=0;exitPerimeter=0;" edge="1" parent="1">
          <mxGeometry relative="1" as="geometry">
            <mxPoint x="1458" y="270.5" as="sourcePoint" />
            <mxPoint x="1488" y="269.5" as="targetPoint" />
          </mxGeometry>
        </mxCell>
        <mxCell id="oiI1xpTamVSD6dDsBw7b-182" style="edgeStyle=orthogonalEdgeStyle;rounded=0;orthogonalLoop=1;jettySize=auto;html=1;exitX=1.018;exitY=0.125;exitDx=0;exitDy=0;exitPerimeter=0;" edge="1" parent="1">
          <mxGeometry relative="1" as="geometry">
            <mxPoint x="1458" y="463" as="sourcePoint" />
            <mxPoint x="1488" y="462" as="targetPoint" />
          </mxGeometry>
        </mxCell>
        <mxCell id="oiI1xpTamVSD6dDsBw7b-188" style="edgeStyle=orthogonalEdgeStyle;rounded=0;orthogonalLoop=1;jettySize=auto;html=1;entryX=0.5;entryY=0;entryDx=0;entryDy=0;dashed=1;" edge="1" parent="1" source="oiI1xpTamVSD6dDsBw7b-184" target="oiI1xpTamVSD6dDsBw7b-107">
          <mxGeometry relative="1" as="geometry">
            <Array as="points">
              <mxPoint x="1110" y="50" />
              <mxPoint x="905" y="50" />
            </Array>
          </mxGeometry>
        </mxCell>
        <mxCell id="oiI1xpTamVSD6dDsBw7b-184" value="ERROR" style="rounded=1;whiteSpace=wrap;html=1;" vertex="1" parent="1">
          <mxGeometry x="1050" y="-22.5" width="120" height="60" as="geometry" />
        </mxCell>
        <mxCell id="oiI1xpTamVSD6dDsBw7b-185" value="&lt;span style=&quot;color: rgb(0, 0, 0); font-family: Helvetica; font-size: 12px; font-style: normal; font-variant-ligatures: normal; font-variant-caps: normal; font-weight: 400; letter-spacing: normal; orphans: 2; text-align: center; text-indent: 0px; text-transform: none; widows: 2; word-spacing: 0px; -webkit-text-stroke-width: 0px; background-color: rgb(251, 251, 251); text-decoration-thickness: initial; text-decoration-style: initial; text-decoration-color: initial; float: none; display: inline !important;&quot;&gt;Gradient Descent&lt;/span&gt;" style="text;whiteSpace=wrap;html=1;" vertex="1" parent="1">
          <mxGeometry x="1059" y="-47" width="100" height="40" as="geometry" />
        </mxCell>
        <mxCell id="oiI1xpTamVSD6dDsBw7b-187" value="" style="shape=image;verticalLabelPosition=bottom;labelBackgroundColor=default;verticalAlign=top;aspect=fixed;imageAspect=0;image=data:image/png,iVBORw0KGgoAAAANSUhEUgAAAe0AAACOCAYAAAAco1C7AAAAAXNSR0IArs4c6QAAAARnQU1BAACxjwv8YQUAAAAJcEhZcwAAEnQAABJ0Ad5mH3gAAD+fSURBVHhe7d0HXBPnGwfwXwZLQBCQ6RZwIypOhnvWveuq26p11uq/ttVardaqrda6Rx1171G1bkEFt6KIW3EiiiJDVpLnf5cEqgiYYACR5/v5pDWXXLjk7t7n3a+EBGCMMcbYR0+q/T9jjDHGPnIctBljjLE8goM2Y4wxlkdw0GaMMcbyCA7ajDHGWB7BQZsxxhjLIzhoM8YYY3kEB23GGGMsj+CgzRhjjOURHLQZY4yxPIKDNmOMMZZHcNBmjDHG8ggO2owxxlgewUGbMcYYyyM4aDPGGGN5BAdtxhhjLI/goM0YY4zlERy0GWOMsTyCgzZjjDGWR0hIoP03y09U4Tjx9wYEPUtG6hUgkcKyQhv0aVYaxtpN71A+wNFVO3BVYQ5zUyPIJMI2UiI5MR6vJW5o2bshiss0b2WMMWZYHLTzK8U1bJj0J448iUbEteP49+RdvBauBKl1CywM3oUBRTOohFFcxqrxc7DnQiAOHA3FC4Wwj0UxePnVQiWPNhgz+XOUlWvfyxhjzKA4aDM8W94K7t8EAlGRiCIjeIw/iTNTvDIubau9wtYe7uh6zA9LjvyNL1xNtNsZY4xlF27TzvdeIyjgAlyH/ob+5YyEXFwyQpbPwa4X2pczJEVyMlD1y0nowQGbMcZyBAft/C7pEvzPFECtBp3x1VcNUVACKMO3Ye6KG1Bq35KuxLM4fsEZjZq6g5uwGWMsZ3DQzueU9wMQGFkNftVMUbz7CHQpJoRgisOJhfMQ8Fr7pnQobvgjKLk6fCpxAzZjjOUUDtr5XFTAcdzw8IOPufDEsjGGD6oOU6G0rbj9N+ZsegKV5m1pqBARcAIPqtZFLa4ZZ4yxHMNBO197jZMBF1DC2xeF1VeCDOX6DUcrO+GJ6iX2zF2Mywr1G9OIw3H/Kyjv54OC2i2MMcayHwft/CwpGAGnzVDLzw0pldxS+/YY1bsMjCSEpItL8cfeV9pX3pB4Fv7nHeHt58IXEGOM5SBOc/Mx5QOxPdsLvl5v1nGboMaQoahnKfZIe4RNc1bjbpoeaWJ79ilFDfiV5/ZsxhjLSRy08zGxPfu6hy98Cmg3aMlK9MKITkUhAyH22DzMP5WofUWkQoT/CTys5ofq3J7NGGM5ioN2vpWAQLE928cP9u9cBZZoOmIAqppIQIobWDl7CyJSe6TF4XjAFZTz5fZsxhjLaRy086uki6nt2emNs5ZXGIDhLW2FC0SF57vmYlmoto488Qz8zznBx8+ZLx7GGMthnO7q4/U9nDtzF7Hap3mZ2J59Uj0+O4PJSqUO6DiyF9zkQmk74QwWzz2o/t6K6/4IohrwK8ft2YwxltM4aOsoLmQ1BvpWQY26o7HtE4jaUQEn1OOzvdO0Z7/JtPZXGFrXAhIocX/DHKy9r8BT/xN4VLUut2czxlgu4KCdqUQ8Pr0JM4e3gpd3byw5HwWVSgFFpvN75gVie/Z59fjsd9uz3yAriV4jOsFFBqheHcSfC4/jSEAIKvh6w1L7FsYYYzmHg3YacYen4fP2bdCsfg2UL1IYJWr3xpzA+4iJTX9usDwp6RICzmTcnv0mq+Yj0N/TRLOQyJIhmHbSGd5+TnzhMMZYLuC0Ny2pDCYWdijp2RR9Jv6FAyEPcO/oGHh9Qk246vHZz73gm1F79pvkFTFoeAvYCFeK6nkorstqwo8XzGaMsVzBQTsN83pjsWLVMiz4fTK+GdABdcvaQCbRvvhJUODGpq246FYNXpm0Z/9HCsfOI9HDVQzUUhSs6Ye35mJhjDGWYzho5xsqJERex9HFX6Lb1CC8vnEIW4IeIU6X9nlTbwwb4gsLiTGq+vlwezZjjOUSDtr5geoe5jezg02Jmmj/7XY8NLVDoeQgTGleBra2dTEjZQx2hmQo/cUodBFK5w3qO/JFwxhjuURCAu2/WUZer0Zbm17YIc7madISy5/uQh8rzUuMMcZYTuFCE2OMMZZHcNBmjDHG8ggO2owxxlgewUGbMcYYyyM4aDPGGGN5BAdtxhhjLI/goM0YY4zlERy0GWOMsTyCgzZjjDGWR3DQZowxxvIIDtp5UdJJjC1vAqlUAokkjzykxvAYfwZJ2q/AGGNMfzz3uC4+trnHFWcxwcsbUy4lIe3Jk5q7oIxbYRhy9UxSKaFUKpCclIiE+NeIjYlGdEw8klX6XTqyIv2w/epStORlwhhjLEs4aOviI1wwJMZ/HHybzcCl+LdPn8S4LIbuPoE5jW2ytxpFEYfIJ4/w8MF93L1zA9dCr+Lq5Ys4HXQON58nIN14LrVGy8Uh2NHPmat4GGMsCzho6+KjXOUrAed+bogGE04iWqXdpCaBvHgPrAtcgY5OuRAaVXF4dP4gtm5Yi/Wb9uDU/VgoU68wCUxqTMa5E9+hgly7iTHGmM64wJNnmaLauGX4uZFtmpNIUIStxbDBK3D3fctkZwepOVy82mDYjA04cfsOApd/jeauFpBKxBcJiedXYNHxBPVbGWOM6YeDti7eqoygd9qRc428LAYvmY32LjKhDPsmJcJ3jUG/P0Jyt+OXrDCq956JPVeu4J9Jn6GEiXCUijtYv3A7IrVvYYwxpjsO2jpQPXuOlymRWhWFF5G5UYRNn6xYN8yb1xuljN4O21C9xNEJffDzqTjthlxkUhzNftiBE9vHwcdOgue7F+PvOx/Pb8hyTlzIOnw/cRPCPtbTHxeCdd9PxKaP9gCZbpJwZv4YTD/wCArtFr0kncH8MdNx4FGW9s5Wsh8F2n8zUdxtnDh4EsHXriEk+BxOHtyM+ZPnYndYLNRNx/QEV84+QEzsczx+EIa7t2/h5u0ISJ2KwcZY/Qk5TALzsn6o9HI3NpyKePsCTXqCoMA41O7WDKVMtdtyjRSWro3QvnYyDq9fh9PyFujX0AUy7avsU6dCxKEf0Lr9fMh6/g89K1l/dCUGVcQh/NC6PebLeuJ/PSvB+hMv0iQ9OoOD56NhV6wwTNPk+fM+GayNQjGj+2BsM6mHltUdoFfyLLOGUegMdB+8DSb1WqK6Q64k7ukTO6Kx/yiuTSMfSwuyKmRLhe0dycnZhVxcXKhIkSKpD/G5i7MTOdoXJttCVmRhWYsmX1FoPyGXxJ2mH2taknDviXUC/z0kRlSy91Z6otS+L9cpKWxtVyperB/titZuym+UiRQT8ZBuhZynwKP7aOemNfTX30cpLJcvoewUFfAD1bQuTI1mXaR47TaDSHhI/otGU3ufylS2fDXyazuYZu25RbHal3UWFUA/1LSmwo1m0UWDHuBHKjaAxnmYkqRAS1oWqd32CXp57Fvysi5C7ZZep2TtNt29pGPfepF1kXa09Lr+e2cXDtqfkMSQ2dTQRvp20BYfMidqt+IufTQxQfmYVnd0p9ZLHwkhPJ+JW0cdLaXvZK5kRQbR/gTtez4xirC19HlxM3IbsIueGvKERwfRtPp2JLf2okELD9LV+7fp2NweVM7KgZrNu6b79a4Io7WfFycztwG0S98DTDxFE2vZkaWFOZmb6/mwsCTrws5Uwr0q1W/fn75fuJ9uRufEHZFIl36uReYS4dozqkoTgz+egGR4CrqzrC05WlajcUdfarfpQXGHlrV1JMtq4ygru2cHDtqfFAXd/asdOcneDgjiQ2rTiGaHJGrfl/uSr26iX1edNWypKy9Q3CX/dStp2bzpNKZdObKUas7PJxu0487Qzz7WZOQ6iPYYskSnuEVL2ziRTGJCNadeFa58JT3fP5aq28jUGSIjj+/orE6xKI7O/OxD1kauNCgrB6iMoqsHNtG6v1fQ4rm/0nddPMhSDIbifScxJtd2E2jByjW0dt06WpfmsXb1Mpo3/Vvq28hNuA4kwj4SMnL0pmFrrwpHlX0Ut+dT00LazL2sKA36VHOLKZRhtLK9ExkV6USr7+lfdFGGraT2TkZUpNNqysLuBsdB+1OjfEJbepcko5SEI/UhIctak+h0dqYGTD/x+2hgEZn6/HyaQTueTk2oRmby4tR3x3OD1qq82NqLXMTMqZEXTQ4RUlLFbZrlZ5pag6Fr0I4/NYGqmcmpeN8d9NwAB5iwbyAV0WaaJRbNadFjXT40nq6v7k6uxmLgFvYz0lTnZkt8ENKHdV2EzI72d4KkALVd9em3UynuChkVazm5dNtI4XqfZ6EwNL8pWctdqNvG8FyvHeSg/Sl6cYCGlzdJp33blCqOPkwfSS0PSw6miVWN1OfmUwzayVd+IW8LKVnU+42uGzICKR/Tks+s1Ne3rPgQOij+bsp7NK+xpk+HRO5IrRffen/QS75Cv3hbkNSiHv1mkANMpvPfe5CR+n4TSs3ev9ItnT/2Je3sUyQ1mEptWtHS+4YPDy/3fUmuJkZvZOqNyPtXHX6rPC+ejo8pT0ZGbjT0QJR2mx7ij9OY8sLv5jaUsrK7IfGQr09RoUaYumwsqpkLSdibKAEhcwdgzM4ITU94lrskMsg/1e7zqmfYNnUOguKLous3/eFuyO8ZdQD/BESLuVCYenihijjRvrQ4Bq7ajzXz5mPN0dPYNKD0e0YmqPBs21TMCYpH0a7foL8hDlD1GP7Hr2tHcMhQuo4viur8sdZo3K4R7LQpsurlQazd/lDzxFASgvDruDUwHTgcTVPTBsKz8HB8+gPcTFF75HA0MruNZeNm4Yw4u6U+TGtj5PBGMLu9DONmnYG+uxsSB+1PlHmt77F8Ur13hq1Q8h2sGDIUa+/zOFSWfRQhC/HrlnBIy3XHoCaGXSEm8dxJnIsTC4pyuHpWQUHNZsgda+HzIYPxuXfR9w/vUYRg4a9bEC4th+6DmsAgRxh9HAEXtYv4SO1Qy9dDr2FGUgcH2Kbcr5SEezfvap8YggJX547Fgugu+GV8CxRPyR2ImRchaOeHTLzUpRO+aG6LpIvzMG3jUz2/sxQunb5Ac9skXJw3DRuf5t4vxkH7k2WMSiOXYkZLhzQnmaB8tBUjBy7EtY9v3gD2SXiNgMUrcTFJDo+OXeFp0Hnmlbh79iLCxTyn1ALlPdyE0K2/1wGLsVIIsHKPjuhqoANMPOOP0zHqkA1Jgerwq1VA/W9dqZ4+RWRqLJCigKW59t8fThm2AuNm3ELDnyaheWFHOL4RtOOEvxuVL6rebNCyZ2s4SV5i78KVuKFvucWmJXq2doLk5V4sXHkj12onOGh/ymSl0HfBXHQrJk8zzakKkQfGo9/0c+BZwJnBxR3C6q33oJBXRpuO5bMUVDP2GhfPa6ugZWVQqVJWZg2Kw6HVW3FPIUflNh1R3iAHKJRk/YM0mQnhbpN7+MDXRv2CjpJw/tjJ/4K2rAj8GpTXPvlAqmfY8cNPOOnxLaZ+7gypzAlO9tLUNIGeh+NJvgjagHndFqhnIxEyWBuwPkTfUos56raoBxtJIs5sWA+9dzcQDtqfOKlzB8xZNBDuxmnat1XRCPy5Hyb4v9JuYMww4g5txT4heslL+qK+m4Eb7ZOu4kJIrLoKWmpTDhWLZ+HzhUzF1n3hUMpLwre+m2Fm5VM9RsCJa2+1ZxfT44NVkf9g0Ybb2v0lsKg1CIPr6ldSz0jM0ckYv8MBw2cI6YD6mMzg4GCdGrRVz59oMxv5gEU9NPWxBJIvY8eWK9rfW3cW9ZpCs/sObLmSO1Gbg/YnTwqbZtOxbEwVFEgTtyk+GLP7f4Pdz/J6NjsJrxPyS6qTIhHPbp1DwL/bsXnrHhw9HYrw19qXskqVgFcvovA6vbRI+QyX967ArB+/xbeTFuFwWEZL0STi1P6jiFBJYVu7LqoYePZHVdQlBN/TnGt5mUqolIXPTzy1H0cjVJDa1kZdQx1g9HH4X0hpz7ZFLd/KurdnCyXh/RPGY90jzfeS2tbHTwtGoaIhagASz2Lm2JWQ9J2Br9U99kRyODgWTs2sqF48xdMsV7klIS4mIfOq4qRYvIrLnQD3Lit416kk/AIKXD10QP858K28UaeScGIUV3HoQFiuVJFz0M4XLOA9YTkm+FilOeGE5FvLMXjYBjzIg3Fb9SwQ8wfURZlibihbwgEuHq3w/a6w9+SeVXh2fD6+HjgcfwTkwbXGXt/Czql90KCsC9zqD8LkRZuxe/tyTB/+Gcq5lIZvt4nYGBKjfbMOYkKxbVp/NK9aFAXNC8O1fCnYFbSBq3dnjF0WhAilEk8OTUH7Kj7ot+Qsok3iEDRvKJo3H4+A9DIJims4duKRkJjJUa5KVaFM92FUT/Zgct/P0aVLZ3Tu3Bldes5BUKIYGoUc6P1tGNNVs71zly74vP/vOB6r2S9jClw7dgJifJSXq4KqH3qAWmnbs31r61pKjsKpGZ+j18JrSCYJjBwb4qcdmzEiK7mRdyhxfeFYzH3WDlPH+wmpQAopHIWgnVo9rniGcL2K2ko8DVyCr9tUQ+mSFVC1cgnYOVZC82FLce6NiruY4NUY1awCipTyQA2P4nAqXQddftiEax+aufwgMrh4VoSjTEj7LgZA74pGmQs8KzpCRsm4GOCPXKmn1A79YvlA8vUF1KJwOtOcSgtT8wVZmZs39yif7qPRXq5Uf/xuuidO9Ba5hjraSEliUZumXsrkm0Suo0624m8goQJtV2k35hJFCE2urvs47ahTs6mDmznJrD2p36JT9PStr6mkl8FraERtO5KbFqNmk49SxHuG+UafmUsdXM1IIrMnv6/XU/ALzWjd5PAgWvRFRTKXGpFDJU8qV60PLbukmYAj+cx4qmgkXDNGNejn0HRG90YspRYFJARZERq478MHnitub6BxPTpT506dqJPw+MzTThynqp5Tv7hPB/U29aNzZ+o2ZDGdf++fjKClLQoI4VFGRQbuI8MMjU+mCz9U1o7PBhnV/kWncenJ4YE0/4tKVFCcFU9iTqVbTqA9YYabtVD5cCW1c7SnNsvC3pkQJG5DZ7JKGastL03Dj+n6d6Pp9Ow2VNa9MY1ecYaeq79nIj3cNZQqmUqpYNUxtD9SSdEnfiTf0t40enMoxYhvSb5Dm7+qRoVkRlT6y33Cp+QeZfgCamIqXqPFaYh6kL8+lBS+oAmZCr9d6hwBOYyDdr6ipPtru1IRuWbmpTcfUitfmnYhF67ArFA+oY3dS1KZwXvphXYTJRyioSXE2cXkVOF/p4RkJH3xu/qSk3rqUDmVGXNCuzWX6By0lRR5+DuqaS1mSqrR+IBMZnfQThsqlVhQpaE7M1woRnH7L2rvIieJEPzKDDtE73xi8lWa4WchBDcJWXp9T8dTUtnEq/T36B7Ud+IOupNOYEr0H0GucuH3Nfaj3+4aenKQBNo/qKhmAhJ5eRonFLn1luhPI1zlwm9uTH6/3X0nmGWJMozm1E+ZzEhzXaV7ZMpEig6/Tef3/UU/D21J5a3lZGxblup3H0vzD90z8JS+kbSzXwmyrjuTrqaTh008NpxKi+dJPGaJFXXeoMtUicl0c2k7KuHWjdbcSfuhL+jvDtbq68m9/yTq6+5GfbY91f6+sXR0dHky0WYS5GW/oUDD5U30l7CXBriIaYUx1f/jod7XQMLeAZrZ+Izr0x8PDX2Nvx8H7fxGGUG7B7qnO81pgSr/owB1tvjjFh8wmsqX7E3b35gqWhk2h+qbiJkRGTn3+yeDElQiBY0tR3Lx+0odqPeOXJ7TVcegrQj7mzoXEQOsCXlNupRhhiSF4ubvVN9S+C3EGpR5oe/WoCif06Zu2qksMyoxCyJXtdOUxiRmVHNKsE41MS+WtyQzYR+JZUdap/dSW++huEMzfTS/l8SqA63NSnHtxXJqaSb8NhJL6mioA4xaSx2ttRlhIWhZ2DmRs7PzOw8nezuytbGmAkYS4Vwak2PNXjRp1VG6lQ2LhMT6f00VLKvQd6fSzwoork2lWmKNiXjMYvCa8/7gpQidQ42K16Nf0l0GLZH8R7hq7i0hLbFqOp/upXxgYhCNKy9mlLSvtVhMuRDr/pMcTD9WE68jGZUadvS991NaycE/UjXxt5OVomFHcz73wW3a+Y20MD6buQSjPMxS27Q0CK8v/oZ+Y/e+MVb0Y/QSO+ethapdfzRLHVKjwsNdu3A6SUwTjFHGowKMtK+8RfkQASdvqzuPqMfR6tzumJteYNeEcdjyUAEU8EXv3hXf28FJ5toL/ZtYQ6p6hn8njseax2lO6Mt/sOYfzSxY0kLlULFE+t2crapVhZvYGYricX7jRlx+b18iBR4/fAKFcBqktvawF/c1pMRLuHRN0/Yqd6sMjyycPsXjh3iiOUDYG+gA32rPLtgSC248xqNHj955PH76DM8jXyIuPgYPTq/DqDLB+L1PfZQpUg6tx282XFtv0iXMHrsUST1/xTc10h8SJ3N0QmF5aqs2noU/znyyEVUktk6ehWfdfsHIyul9pkr93dSfIbVGo15dUDwluhhXQOtu9VCiUCEU9/kSC37vA5fcjDzyInCxFw9AhYjHj5Gs2aozeREXaHaPwOPH+u794Tho50eWfpi07DvULpjm9FMSbi4ZhOGb3nMD56ZX+7HlsBM696yJlL6wUN7D1s0n8FqM2QW80aFN0fQv7FcBOH4pWUiixHG0vnqOo80dytAlmLHxsTrAyst4w89Zl1vWGt7eHhDTZFXkbsyad+6tznlJt67ihnpGMSEBsLSCVQYfKbG1RSFtuq64HYKr7+1hrMKLF+L0osLnFrSBVfp5gSxT3L6EkFfilSmFdYXKKJ2Fz1e9eIFozQHCxiAHqECofyCeqPMSEhhV9oF3yhRtGZGZw8WrPcau9Mc/46ujQMwN7PqlK3yaTIR/lPY9WabE7aVj8fuDFpgyoQGstFvfYeoA+0IpJ16J5+FPM+3AqQrfjOUHS6PPAK//7rs3Ke8g5Hq0Ot2QmNVEkwbWmu1qFqjz3QHcFX77ewHz8bm7oXNz+jKBpYWxcLYISS8job6k9GFiCQtxCK2QXr6MzPmuaLqkAB9GJQ4JeIVXrwz9iEGsDsN8EhISEB4e/lE9IiIitEeXe0yrjcOyqY3/mzZRixQPsH7EEKy4+/7fNjeoEgvC88vx6CMOu9BS3tyIjYEJ6mBs1bA7OhZN/7JOCArAGTGyQwZXbz+9xtHmDiXu7tqJswniMUtgWqosSumU3knhWMZVM481JePa7p249EaKLDU1gYk2GBNpgne6FIr/EnKZHPL3phaE16/j1UEbxsYwTSnIGUhc8CXcUh+QHOU89JsiNAW9fo14zQHC2BAHqHqCgDfmG3er46PHfOOWqDNuGnqJJ5WUiDw5FT1H78CLD8gxq55sxHdTz6PGDz+jg0MmJ0zmCOfCKa8TXj59injts/RQki1qjRmPHhmNi485j/PXNb+CvKIf/FI/+2MkhYlwD4hnnxJSrgc9SE1gqr6BCAnC9Z7jNLXk2SP5zESqZvHugv+GekikxlTiyz2ZduBYuXJluvvm5qNgwYLao8tlijBa3dGFZGnatyXG5WhMQB7plEbJdGliVU0bvdSWOq3NaE3kRDo1rry2PduJ+uz6CNYofW+bdgQtUfd0Fs+LjFwG7NW5t3Ni0Fgqp+1oJDH2o1lvdgqL3k69HDWjCCTWXWhDBk27qW13kJBx7Wl07b09ouNpW09N726jOtPppg49qHWXSCe/Kas5f7JiNDiL3Xbjt/UkITNDMKpD0w1xgOr2bO2IDOG66rdb3+5k8bSnv3APivuL58OsPs3Ocge+l7R3UGmSyx2oUr0G1KBBZg8fck9ZU1t4GHlNJnGF06xKOPAlCZlg4bPk5DYqQO924pyVQHsHaH5zo6o/UrAunTXelNqRzYiq/his3ZhzJOJ/hJOWLVSRx7Fo+hqci0yEyuB/RQKpcUG4tx6Fr1sUS50oIK2bN2/iyJEj2mcfB2OhFNK7d2/ts9ylitiBgXU6YfltsdpYILVDo5kHsWtUZWRlgsgcpwjGxBpe+OlCMqQOPbDp+mq0T69OUHkHs+qXwzcBSUIBpzWW392B3rba13KL8iqm1PbED2eSIQRt7L21EI3frHtUnMP31Wrj52Cx3UyGEkP349qfDdKvnkxDcXECvGpMxiX1rqUw7OBV/FEvZc/XCBjjhYa/hSJZVhrDDoS88VoKFSL+agu3frsQLbFFq8Xnsb1fsfdUzSVgd7+SaLM8HLJaU3H5+Lcoo3Op8z1UEVj8WQl8uU8o2Zg1xcJ7ezBQ3bCon4Td/VCyzXKEy2ph6uXj+PYDDzDx4GC4N1sIcf0dSZauKwWu/FQLVSee07StSqzQZf1jrO+sf4N9QtB41Gq6Bc5dm6D0e6shlLh/eAV2XdXUjMhKDMWBa3+ivi4X1zsUuDSxOqr/dBHJ0sLosfkuVrcz3LzphpeAPf1LodWyJ5DVmIJLJ79DOX0ug4Q96F+qFZY9kaHGlEs49V057Qs5RB26WT6mpMdLW6b2Eq7w1R56mps9O/WUfHmSUBoUe+5KybbrxneHLqWIXEltC4rvE0qNPjPotkFLgVn0vpJ2YiB9Uy6l162MSgw5pHNJO/nCD1Q5pXewrAgNSvvhLw7T2Gri+tNSsmu1hO6m/T2i/GmspylJJHJyabuUrutUGkmgQ0NLaEswE/UvwWQm4SANLiaWbjRDhk5msSiXcGgolRBLhEZVaeIHH2AyXZjg+d/62VmqXUgk/5Fu2l7XwkNiSq3+ykK3+OQrNN3HmtyG7M/4HnjL239XYtGB1ma1M73yIc1tIFwr4ucUaEaLwj/2BCSetvawVdcIGdf97b9e7rqK30o91HM9GFPd3+5pN+acj7nhgeUAZdgGjJnyL6KFkpzTZ79h06zmmp6ReYJQWth3AJfF3sCSgvBr0TDDjjcJQf44re58JbZn+6LIOznrRETeuYobT2KFT01HUhQehIaoX3+jeTh7yexgl9ITTEhbExO17cU6UMXHQ90ULpLawM4mzRcuVB3NfUqjmKsT4v4ZieZdp2Jz4DU8eHQLZ3b+jr4N2mDmZVN49FmMvav7Qbe+QxKYWxTQtBXGxSHWgL0ZVU8uIUQ9a5cEZuU8UD6LE4ZJzC000/lSHOI+9ADV7dn/zTdeSs/5xtVUzxESquloqCYrjjLu+hZ3lQhb8T/MvNsMk3/I+B54mwzOzvbqcyWipGcIf57F3yP6GI6dT1Rfm/IKPvBJXUFMHzl5/ykR/1rsAyNcD2YWsND3cJXxeK3tZ2Jm8d88czmFg3Z+9ioAEzt9ifX3FChQZTTWrByIcoaYPTHHxODkyctIFu4fiZEHfHzf7LH6piQE+wciQkwNZPaonXZe6IRgzO/ohTqdB6GjpzNcm07CIe187DGX1+O7jrVQzrMReo4cgW41HGFTqjHGbr+X/cFbVgQe5e2F5FVEeBX5QufhKarnz5Gy3KLUshw80kRdZeh8TDzkg+UXQ3F+xxS0kB/GL72bolbNRugxYSteVB2O5QGhOLusDyrpnC7J1dNjiomK6uUzGHJK+4RLlxCq/sHlcPOojKxWvsodHaHuI6V6iWcfeoAxJxBw/o35xn30mG9cS/VkJ7afeK3NjEkgL90S7bz0+xRVxHb88FMgqn73Mzo66pqky+AgBO3UdYRUQtB+krUrOiHoKALVQ97kKC5kXFwzyLioIq/i3K10ptjN6ftPFYmIF2JzoBQF7e31vpZUkRF4ISY60oKwt8+FZgBtiZvlN8k3aVk7F5JLJCQv0oH+umXIuswcknyavq2orV4uNYwynOdAcZtm+hprqu8KtqWVb/VVS6Yr0/yoypC99FxJ9Pyv1mQpkZFT9w10edswqlmpJU3adZNSag6VERupm7OMJJb16Lf398zKnA6Tq0Rv/0I7gxvIqMK3dFqn06SgW796a6ttpVSo3ao0U5oq6PZMH7JssfS/GeUMJH5rD7IVjldi0oKWZNQnUG/JdHlSNc33kdpRj60f0IkwpWpTYkItPvAAEw4O1na+Er6vufB99W5XiqFDX7kJ96DmM8Tv1mrpPT1n6IqmQ8PcyarWFLqkZ5OBePzFtccvTsTTa3tW5mRLpKDUDp521H1LRnXsCXRsZBlyH+GfppNaLtx/qemGEXlOuCAcgX6ST3+rncrXkyZcyPl0k0va+ZGQ0zw0riOGbX8EVcEaGL/+L/QurVP958dF+QKRLzU5cqlT0XSqvLVeHU8dn21U2Re+b9YfJh7HorWm6PNNE/XwN1MzcSiIEk93DEfT8c8wdNsWTGjpmpobl9r6waeCkNLFBmLX/vBsH89u2Xwkvqxqqq7GVNwOwslHOvxFVTgOHg5Wl0QkRu7oM6qDpnSZSolHD58i8XYoriZqNxmI3N0d4lwtpArDnduGqouIR3DwLU3JSlYWlStnqbeUhtwd7poDRNidlKUws0KBa/5B2vHZwsdW9IFP2vGTmVLh6e4xGLpE+F5i2JTI4dJ2Bub0Lq5X9WdMwBSMXmmMATNGwkPPYr44wUpqTbYqGk/DM1poRoUXZ1Zi4vBh+G5xwNtrbytuYP/Bm+oqbYlRJdSsmcEKLDEHsGqbBJ91qPF2bURu3H9J9xH2WDhiiSlKupeGvilf0v0waHYvCff3pptKvLh2DP/sC8K9GMOkFvpcH+yTkIirC3uhx5xgxMtLoduijZjgbal9LY+RWMO6oKZ+T2JiBrOUqr63qPBg2yb4x4opoxzuPr5vjaNNPLkF++2aoVUx8VZQIDT4mnrcJiXbocu8BeiZthsuxSBGbBsXEv3EeN3bmDOU+gGUfgJk7IkR0waijDhxc+IJrFx6Du+b4yTpyl/461isUPwzQrHPp+Ab77Q9kTXtmXTzL3w3IwgfPJ/HG+SlPeFhI/yWivu4fsNAY1iTruLS1Tj1TyVzqIDKLhnlznQgLw1PDxsh4VPg/vUbmY5NzpS6PTtUG/TlKFHbB6V0Piwh07T3W7T7YgmuiSuWCQHbqekM7FrVGyX1+GqqyL0Y238OHjT8BmPq6F9NK3fSNhWoqfAsPDzdTIwi5De0a9QHP839E1OH9sEv4ggMLcXlDdgcrBl5IilUEqXSzbgocPnPafi30miMqPN2his37j/lvVDcEAOovAyqeOrbS1+Je6E3oNm9CjLfXYmw1d3gWbk+Wjavg7JefbFR77VA35XeL8w+WWLufhQ6fr0X4WQNv582YGGXjIfLffSMK6BODTv1Rax6ch/300lxkq4twZDv92omrJDZo5avuJbuf+KiTFG3e2uo52NRPcKJkzeEpEMIal2nYEL9dNrIY8/hXKhw40mtUdrd+cN+O2UUotTTcwl/OvYVojO4n60aTcfG6Y1hL03GxVn98f2Rl9pX0hFzGr8MnoHT8RJY1fwWa/7sgHebOWUo8Vlr1DB9iWMT6sKtfF20aNMO7du3R/sOHdH58x74ot8ADP5qBL7+birmrd2Lc490nGPT2As1PE0hoXhcuxyKjFbd1surYFxWr6EtEU55FXikO0etrozhVcMT4iJP8dcuIzSLB6h6th/7zmg6X0FaCLX8qurUnq16cQGrv2mK2kKpOlC4KCUyO9QcugqHtoxEFT3iriJsO75u3h2Lb6jgUq78O5Mk6YSkkMlSG7Xx9OFDIcykpcTtnVsQqL1OJTIbFE75Y8L9sn7qCryq4KEusdNr4Rp+5x4UPnfPKPRcaI3vZvVF2rlZcuP+S7gagtvCR8gcvVA7owb4DCXgaog4FbIMjl61M2y/V1Pex+bF2/BAnF5ZuFISb6zBD38EaV77ENpqcpYPxF2YQQ207Xll+m+nx/o2wX2EEi9OJW9xKJe8NA345/kb7YEKenp8FrUrY0/W4gIRwqUusWpHqzNrxH2xmtpZCe+VOtAX29Nvm4vXrvAjsWhJy7IyNk7xiM7s2UU7tqylBeObU7GUFdektlR78O+0atN22vnPCbr9TrNtLF1e1pPKmUtIalWZ+i0+TRFvNacpKPLi3zS8lg1JhfNbos0sCnyR2fHFUtDUumQn0/799zwkRnZUseUoWn7+xXvaXBV0bVotMpJIyLju7/oPp0lH6jAtGFGVCRf1boNMS3FtGtUSF+0wrku/63iAiY8v0sF/hPO2dSOtXjiVBtd1/m/RHVkxajd9I+3YtYt2pfPYtmElLfztRxrW0ZtKWck1k+VIzKioXz+auf+ujsP4FBRx+SBtWj6bJvRvTO5WMu2kO0Lota5CPSYtps1Hr1NUpl9HuCcuHaLd2zfQst/GU48a9v+1pwsPmVN9Gv3Hatq0fSftORxM4dof+vnfHaiQVEJy6/LU8fdTmmU1lS8ocHpTKl5xKO15cplm1bcmqXANi23y/7U0R1PIhhFUq2g1GrM/4v1t9Tlx/4lD3dQLm0jJputG/ZcITVklTmpDXTe+b+8IWtHWKvU8iQ+xX8qH4qCdTygfbqbermJnLCkVbjKbgrPS5+SjpKTH+yZQsxJmJC3oTs0HjKXvx4+k3s0qUUmPjjR1w8/URFzfWRyfXfc3ymyyqfh/+pGzmCCYCwlChHbjWxLoyLBSJBM+y6z+nKwFpLi/qb2lMZmaFyRrGztycHImFxcXcnFyoMK21lTQwoyMzfxoZgYDyWNv7qKpPWtTEXM5mRf1oqYdelLvnh2oaa3SZC03Jceq7en79cH08j3HFndrN03vX4+KFzClwmVqUYMmTaiJ+GjckOrXr0u+3rWpeuUyVLxwgbcSdqllFRq9L/MEOGXsvMS6A615qd2YZUq693tdEkqxQnB0oQF7DXDhJl+mSdWMSCKxpg46HWAiHR3pls7KeDo+xM6eZtbkUMydPHzaUP/v59KmoIf6LcWZfJq+r2xGRsZmZGFViOwcxOvGkeyFa8bKogCZGMnJpMRgynQJ8+Qz9J2HMcmMhOuvgAUVtC5EtvaO5OxShFycHamwjXD9mZuSsVxKMuuWtDhlKa7km7Smf1Vycvagz/qNpR/+N4Q6+7pRidojactdTWRXPj1Ek5oWIzPT4lS310ga/+1X1LlWCSrq1YcWnNHtIsiR+0/s/OllJATdQsK5178joiJkMnkZCfdBIeHa1mH3hCvL6AsvZ+G+dqCqHdpQtWK9tK9kXb4P2i829aaS1hZkYW5O5m89hG3WpajT8rtv5Bwzprg6ixo5WgsJcWFycHahYiVLk7t7GXIvXZKKFXEmh8I2ZG1djPptz4XpM2OC6CdvIScsXuwVh9Het7sSfxoSn9Llw1tp1YLfafbSrXQsJFydKEauEUsJYsJpRNUnX8nkXCbT6W8rqnsoG9X8mdJdrVJcs7ukTPisAtTgD317+RqWMuYeBe5aS8v+nEXTZ86lpX9vp4CbL3W4VpX0aNco8rKWkWnpdjTTP/w9+yRT1J3jtHZyN/IU1/MWriF5if70T2bpsJAw/lxDyCBKC9PnGz80asfT9i/sxR6zJLXpQht0mznkPRQU8nMNMpYIGdjPN9IH5yvyiZjb/rRp2VyaKVxvq/ZdpRfvXDjxdD9oKy2d/SvN/HMlbT1+m3Rf6Tdn7j/FrVnkZyohqV0XWq/30AkF3ZrlR6bCdWPXZb3+Iy/i1lMX937aJ1mX74O24vFp2rFhLf29ajkt+uNn6lezkDqBSMkly8uOoRO61F/F3qSjG1fSolnfUR8fFyFB0OwvMbKlis370bif/6Al6w7R9Zxer1pxl/7uWlxdXSlzbk2LQj/uWYENK5LWdrRRn0+JSU36ObPJlZV36be6Yk2EnNxGph2WohG7ZwAVFUsCls1oYUopJOEsLfzhL82/8wBl2DJqYycE3wI1afJF3SpmU8RemEZ+VmLzijW1W5VZMUNJYQuaUUEhcbMVErcPCori2sdVxeE5ErJsucxgs/UpwxZQs4JC4m0rJN4ctXNfjtx/CgqdWktIm2VU4sv9qcPIdKYIpam1hGOUlaAv9+u9t/AVZ1H9quO1z7KOq8ffEkHLWlqRU6niVCC1vcqZem3T865OOKmeflJiUY1G73uiQ+knu7ykY996kaXwXcRjGXfE0KNyc4uSnhyeTl808CKvRkNpzc30WzkVt+dQfQuxalxKDl3WZZ7gp7an2QvnO70bMoq29HAQMgBSKtR+NT3Xbo3e2YdcG8zWPvvYieOzfYVES0ImDf+kR3oHwCha18lanbCWGXMy3YQ1VdQ/1L+YjKTWrWnZh3SeeLGS2loK50VSkFosfmTA2o0o+qd/MZJJran1sscG/FyWJTlx/yVfoAmeRiQxr0PTLuvfMyL5wgTyNJKQeZ1plIXdKXrj5+TeY7P2WdZx0H5T3E7q7eRMfdZtpN7qVVzEwC0hq+aLKCVjpxPFbZrhY0qlvjpMubeWVCJdX9KWXGQSobRfjDqtup2LmYd3xQXOoa9m+uuf2xUon6yhTg7i3L/i+cmoc1J06sQVUuv69HtI5ndZwpsdXNJrT0v0p5FucnXwaLtSm/lR3KUFLdyp85pwzfOPXkoVpJDwtF2lfycciqddfRyFhFNGJb868p4OVEJpe1lrspMaC+fnfDrnJw1lJJ34vSf5lHenap1m02nthREnJMqOUuEc2nelDQbOc4q1Dq3tpGRcZQKdz0IizAwnJ+6/yC09hb9hRGVHHctCuhNJW3q6kMyoLI06lpVU6wVt6u5O7Vc+1T7POg7ab0g8OYbKCiWDv54nUODY8qkdTyTG1WmyPlmrmM3U3aE0DTuiX/Wj4Sjp+f6R5CF2wBJKErV/PJmFBDobKe/TkpbFqdXSJ1kq4cTv7pc6S5hEXpT67ni3JiTm+P/I00zIsMicqM3SW+/JsCTT2e88tO1pU9NfglJxjabVNhb+niuN9BfLmNF0fmZTcm/6B4XmoQQ/9sBgKikkjlLHrrRe37rm6H00SGxTlDpQ9806RNDkEJrhZ0ky5+606T39KGL2DqISKT3pZaW0904CHfmqJMkkcnIbfiQbMsDJFDLDjyxlztR9kw69m1k2yYH7T3GFptY2I5lLD9qchTYWxZWpVNtMRi5CSTkrTTTJV34hX/d+tMsACTEH7VQKujm9Dpl7/0q3hItGcX0G+WqHCgFychUSDV17eyYeHU6uDt1pc063X2slXJlLzcSSqMSISvfaSPc/qtRISff/7kQu9p1oXRZnkUw8PprcjQqRu09bGr70zDttpsm3VlGXEkZCwLanhtO1Q1QyJa4DbUtSiRl5TcpoWkMhI3Toe/J1FIfqdKUuDSpS+SYT6ZChGllzivIhbertpm7Xc2oxm87q2rErLoSWdS4hZGSNqFiHv9T3iC7iA8eTp6kRuQ/Zn0nbdjIFi2uiq+81IUNh155WiytFxR2kIaVkJHPqTGuya3xifCCN9zQlI/chtJ/btnNJdt9/CrqzpCUVlttSi4VZqHFU3BEKGYVJbtuCFmZleUBx/9au1HjOdYPUdnLQThVBy1tZU7lvAjVtdcpwWtlO04lJnZCI1XM6BRkFXfnJi6yaLqQnuZCeK5/spEFlTdRDu2zqT6ezuVc/n67owMnkZyMn5947sl76TzxLE6s7k88PR+npW3dBHN35ZyI1cTEiWaFqNHhNqM6lM0VkCAWcuPneoVLKqNsUdGAvHb5wP0tV+x+FxNu0bWx9cjaSUsGy7eiHtafpcUaVQskRdGnLFPq8ciGSyQtTzSFrKESvayqOzk+vRzYmFWj0sYxzsS83dSMHWQEqWX8QzT4WLiTR8XRhmi9ZmZShQbueZmspOO78dKpnY0IVRh/To7czM6TsvP8U95ZTG3sTKvXFJv2aOdUUdG95G7I3KUVfbHqYheswmgIn+lCZdssNthwwB+0UYnu2szP12flfihSzZ0DqggCQWFDDuToM/1I+pgVNrKj6lBCD5Kr0Eneefq0vrhMrIZOyA2lHbuQaMqSk8EMTqL6DTCgBl6QhBz9svG3ynS00yq8YuVRsSj2HjqaRA7tRi2ouZGnjTo2H/ElHH2baTYoJ5yPq6g769cvPqJqLOZnauFKNJp2oz5fDaPSYr2nE4L7UpXltKlPYjMwcK1GTvpNp/fmIrF3Tyke0pY8rmbv3px0ZrbWsCKNtI+uQi5MntR00ggZ3rEZOTr70zY67mXd4MwglPdrSh1zN3an/DjHDwD4ZcRdpVsPCZF37RwrMQo4s7uIsalhYbGIMzFKGTvlwOfVpNYEOi6uhGAgHba3Ek99QOetWtDylW6Io+Sx972EklFrFwC0hoyoT6L2LusRsos/t3WiEut0lBynv06YvXNXt8FL7pvTH5dxqT09H4j3aM6klldI2N8jLfkMnDfLzxNPj83tp/fJFtHjFetp59DI9/Yi+dp6hjKOn14Jo/6aVtHjebJr56wya/eciWrFhD50IeUyxhkhvYs/T781cqLDfZDqZSZV8zJ0TtGPNClq75yw9NMgf1lUsnf+9GbkU9qPJmR0gyzuUD2lzHzeyrjCAtoTpn90UJ6Tq42ZNFQZsoSzsnm04aKtp27PrTKebb50cBd2eXZ/MU4d/FadB+zKvlEk4MoxKO/SgDFeoyxbRdPLHOmQtLolYwING6DJlYE5IfEKnV4+nduWsSZbyG0qMqKoBpqJkeVDsZVravQK5dVqdhWrKnBBLl5d2pwpunWj1x3mATGfJdHaKN7n6/Y/2PMpCxBUKbFO8Xcnvf3soK7tnJw7aas+17dnpjD19vpY6F04ZXiQl2/arM+k9qFn316rZIsqoFtDwFHRndWcqJk4bKXOhNkuu5UB1YiYUUXTr6EqaPLA5ediLbevaYK19SEy96dfrH9ldwHJQDIXdfqzjfNu5IybsdsZt/CzPiA67Q0+zXDqIprA7Tz/KwoVE/I+QmOZvr3ehr9sg0MJb+KtV2rXWXuPwV5XQZN4d9Qo4kgJ+mHnpMEant7yL6jHmNyuHlfWCcHJ8uQ9bAUpHUce+RaNW03Eu1gJe/9uNA1P9kM7aOIajUuB1zEtEvXiOiPCnePL4Ae6H3cXtmzdwLTQEwZdCcD9Ks1TfuyQwbzQXV/8dCvVKfIwxxvTCQVuQFDQWns1D8c2NXehTWLvxDYrgSahVfRLOiUusSYxQYdxxnJ+WZjF3UcwmfF76ezhtvYzffHRZqO/DJF1fgs4NBmPnY6VQhDVCAcsCMBKKtoZHUCkVUCgUSE5KhkKVxUtGao02y65ha28HXhOWMcaygIO2uF7sjLqovL01LvqPTX99VNV9LGheEUP3x6hLkDKXvtgWugytLDUvp0g88hXKd4vGzFur0E7/Nen1onr2L0Y1bIe5l7O2EHxukBbuinXX16FzIe0GxhhjeuECD6IQcDwERev4olhG9dnSYug6sDUctL+W8slWLNn0BCrNUy0FbhwLQmQVX9Qx027KLqpHWPPlF/gzDwVsIasDp9Y98BkHbMYYyzIuaSfsRr/SA6FccAsrWqdtz35DQgBGVW6A2TcUwhMJTGtNxfnj/0O5lEAvBNJ5TcpjdcNTOPFt2Wxuz47FjSP/4sLTjNqOP0ISGVxqtoNvCbl2A2OMMX3l+6CdFDQOns2uYszNXeibTnv2f5S4OtUbVb8/hUTxF5O7Y/SRYMzyMdG8/GoDurhOQJHtlzHLO/vbsxljjOU/+bx6XIkHASdwv7wPfGy0mzIkQ9neA9DYSvuTKW5h7aJ/EKV5hsSz/jhjVAu+nhywGWOMZY98HrS17dneviihQ3221LkjBrR10lZ9q/B052Ksvy+2bCtwzT8QL6v6ZX97NmOMsXwrfwfthEAEnDNDTV/Pd4dvpcsKzQZ1h7t2XBXFHMHSFVegUD0Rgv8tlPXxgW0+zwYxxhjLPvk6xCRdCkBQbDX41c6kA1oaxtX7oW9NU6jDNiXh0srF8I84jmOXnOHtVzJHJlRhjDGWP+XjoK3Ew4CTCCvnrUN79htkrug5oBkKaX85xb2N+HPKbpwx5vZsxhhj2SsfB+1XCDh+BUW8/XRqz/6PFA7tB6BDEe1OqufYuWgjIqv6orapZhNjjDGWHfJv0H59Ev5nzVBL5/bsN1g0xqBeFbRThhKUCgkq+fpyezZjjLFslW/DTOzh7fj3pQdqZ6l4LIdnn77wKaCd6FteCt6+Jbg9mzHGWLbKl0Fb+fQAJkxcj8fJsYiOydrcMrIS3TCgha36B5Ta1ub2bB3FhazCAJ+qGLIzVruFMcaYrvLJjGixuH38MM7cDMON80exc9MunFdPASpFwXKtMaBfK9RwK46yNevCw0H3aTZfH/4KlZrMR0Tzpbizqy8ynVAt31IiLuIerp47jn+3LMfitQF4EG+EJgse4N8v7bXvYYwxpov8EbSj1qBjyd7YKQQLE1MTmBibwtRYBpUiEYmJwiNBeCgLoNEfF/HPl8V1r35QhuK3xo3xb/sT2PuVHvvlE4rgn1C71s8INXeGa6WaaNDUFqd+XICTCRy0GWMsK3jBEJaNVFCppJCm5GZer0UH+x7YGsdBmzHGsoILhywbvRGwGWOMfTBOUhljjLE8goN2HpMYeQdXbzxBrFK74S1JiHoQihDxdXHZb8YYY58UDtp5RgKC53eEV53OGNTRE86uTTHp0DOIa4wh5jLWf9cRtcp5olHPkRjRrQYcbUqh8djtuMfBmzHGPhncES2PUIT8goY9H+DbA3PRDKvQpmRf/GPRDWv3d8Tx/hNwt8VU/P51S7iaC29WPcOmnp74fF0MfGedwcFRZdJM/KLAk3P/IuB6FJJUBjj9EilMCpWHbxNPOGY2Yo47ojHG2IcRgzb72CXQkWGVqMkfd0kpPo1dT50KSghSC3JwLkddV92iRPX7UigpfH5jMhbyZCb1/6CH6p3ekHyBfqxmShJxDlYDPSSmNWhycLL2D2Qgbg21NxeOG8bUZMFT7UbGGGO64urxvCDxJLbst0OzVsXU7RmK0GBcixdiHyXDrss8LOhZOs386YSYmDjhvwRVYjzEt75F7omJZ18hNjoKUVEGeERHI/bVKXxfSfeJaRhjjOmPg3ZeEBcF07rd0bqoeLpUeHTiJG4oAJlzV0yZUB/Wmne9IRbnzoVCKZxe69LucE53UnRjFLC0gpWVAR6WlijAs7gyxli246CdF9i0w4xF/VBaHXxfIeDYBSSRFHaN2qHxuxEbSAjEoRPRUEkKoGa9OuAVQxlj7NPAQTuvEQLy0VOxIIkZqvvVgdjvLK3EoD04FK6ExLQ6Gje045PMGGOfCE7P8xjF5eM49UwJyCuidh0b7dY3JeLE5t0IU0pgVrsd2qir1BljjH0KOEXPU1R4eFzTni0vURu+pdJprI47jPU770MpsYBf5/bQxOxEnFs0AStCtIO2FcGY5mMNY6kUEonkwx/C5xgXqodfUz6fMcZYtuBx2nnKS/zdviR6bYtB4V5bcGdl23eqx19t7Ykynf7GM6v2WHlzC3rYChtjdqFv1dmovH8/RpQUA30i7gVsw+Grr5BkiNMvEYN2eTRs44PiJtpt6eFx2owx9kE4aOclifswsHRLLHlshpZL72BX37QreCchYFRFNJh9CwXarsC9bb1QCErcW9gaTY90h/+6bnDIzbqVuL/R3r4Xtr02QqN5Yfh3iCNX9TDGmB44zcxDFFeO41SE2J5dAXW802vPlsHewQ5SifD/EiXVpfCYC7Px5e9KfDWpc64GbEXsE1zadhBXksQ8ohLXjmzH2QdCSV89DytjjDFdcEk7D0nY3gtFOvyN11V/xMnACfBMZy4TVeRhTGzXHbPuuaNNHTmuXJajw9zVmNDAPudzaAnb0Lv0F0LJWgaZVHyIbeja18SpX1QqKJUqqBRAvT/uYHufQtrXGGOMpYeDdl6ifIGrgddgXLEWXK0zCcGqV7hz5gxuvLZDhRqeKJreuDDGGGN5DgdtxhhjLI/gNm3GGGMsj+CgzRhjjOURHLQZY4yxPIKDNmOMMZZHcNBmjDHG8ggO2owxxlieAPwfikFz2tg7BdwAAAAASUVORK5CYII=;" vertex="1" parent="1">
          <mxGeometry x="866.4100000000001" y="-17.5" width="173.59" height="50" as="geometry" />
        </mxCell>
        <mxCell id="oiI1xpTamVSD6dDsBw7b-189" value="" style="shape=curlyBracket;whiteSpace=wrap;html=1;rounded=1;flipH=1;labelPosition=right;verticalLabelPosition=middle;align=left;verticalAlign=middle;" vertex="1" parent="1">
          <mxGeometry x="1630" y="88.5" width="20" height="414" as="geometry" />
        </mxCell>
        <mxCell id="oiI1xpTamVSD6dDsBw7b-192" value="Gradient Descent" style="text;whiteSpace=wrap;html=1;" vertex="1" parent="1">
          <mxGeometry x="1660" y="275.5" width="130" height="40" as="geometry" />
        </mxCell>
        <mxCell id="oiI1xpTamVSD6dDsBw7b-194" style="edgeStyle=orthogonalEdgeStyle;rounded=0;orthogonalLoop=1;jettySize=auto;html=1;exitX=0.5;exitY=1;exitDx=0;exitDy=0;" edge="1" parent="1" source="oiI1xpTamVSD6dDsBw7b-52" target="oiI1xpTamVSD6dDsBw7b-193">
          <mxGeometry relative="1" as="geometry" />
        </mxCell>
        <mxCell id="oiI1xpTamVSD6dDsBw7b-193" value="" style="shape=image;verticalLabelPosition=bottom;labelBackgroundColor=default;verticalAlign=top;aspect=fixed;imageAspect=0;image=data:image/png,iVBORw0KGgoAAAANSUhEUgAAATcAAAB2CAYAAACtUdRPAAAAAXNSR0IArs4c6QAAAARnQU1BAACxjwv8YQUAAAAJcEhZcwAAEnQAABJ0Ad5mH3gAABPUSURBVHhe7d0JWFTlGgfw/zDDooJLJK4Q3isoCGhoICrjvmWpWIaW24Vcbmmicu2aKaaG200zc0Efy9Tc10zTXEo2xX0BVJZERAUUSxBl1u8e8GCyDAzDmQGO7+95Tj7zTTMMnP+853zf+c45EsYBIYSIjBn/LyGEiAoVN0KIKFFxI4SIEhU3QogoUXEjhIgSFTdCiChRcSOEiBIVN0KIKFFxI4SIEhU3QogoUXEjhIgSFTdCiChRcSOEiBIVN0KIKFFxI4SIEhU3QogoUXEjhIgSFTdCiChRcSOEiBIVN0KIKFFxI4SIEhU3QogoUXEjhIgSFTdCiChRcSOEiBLdcZ5ULc1j3LuZgjsZ9/GXZUv06mDPP0FI5dCeG6lS6rhd+Co0CMN69oL/0tN8KyGVR8WNVCmZxxgsnj0AzWGJ9r5d+FZCKo+KG6lyjyIjcEnrii6+DfkWQiqPihupYnmICT+DJ819IHeS8W2EVB4VN1K11LGIOJUJG2852lvybYQIgIobqVLatAhEJcrg6dsZdfg2QoRAxY1Uqb/H2+wojERQlCdShQrH2zpC7kzjbURYVNxI1Skcb/OSowONtxGBUXEjVebZeJsUnr5daLyNCI6KG6ky2VGRBeNtneV2YMkrMDn0Ev8MIZVHxY1UEQ2y7qTjqY0LPJwkuL7zPGy6u/LPEVJ5dOI8qTKaG2F4t38YrP/VB9JMV4R8PQotpPyThFQSFTdStZ6k48YtBRo7v4Z6VNiIgKi4EUJEicbcCCGiRMWNECJKVNwIIaJExY0QIkpU3AghokTFjQjnyY8YUscMEonEJIu5UxD/gwkpiaaCEOFobiFy1++IS0vC+WM7sePXBDzSFsbLDA16zcSq8R7Q//ofj3EidBxWX1Txj7nAmjeC50B/DPR1xz9atMeIga/zzxBSFBU3YiS5OBvSHd3mncWTgoSZoUnAT/hj/QBYFTyvj0ys6WuPf/+qfPbQzA4D157G7sAWFSiQ5GVF3VJiJHXgOdwP7gJWIUntznjvPSpsRD81vrgpkvdi2ebLUPOPxUCb8QtWcXsoD7V8Qw0lqVMHtSX8AwFILLj3M+cfVDeKZOxdthmXTRREsWTEmGp0cVPEheGDwANoKncT1dbcrJEvOmSFYtiMo7hP4a3+FHEI+yAQB5rK4WaiIFJGymea4qY4iZAebeHi3AL2zZuhWTNuaW6Pf7Ryg7u7e8Hi5tISji2c4e7dB+9PXY5DCY/5F5dOm3UE0wO2wm3JCvg7iO2Ma2t4fRqGcRkzEbjmGvgRJ1JZRsghF0QcmR6ArW5LsMLfAaZLImWkXPkHFEwnh233r8/MYMYavruZZWj4Zp469x67vH8BG+Jkxcxs3NjYHSlMzT9XhCad7fjAiXnNPsue8k1ipMnYyUY4d2LzLyn4lppFk7qcdbdA/uEEbjFjTQJ+ruD6ymCr+1jwrwcze2UE2yPIChcoh0zD0nd8wJy8ZrOzVRTEmp4RYzJtcVNdZLPamjNIrNnb3z3gG0vKPTGRtZRxYbYdxL5LK5Y8Ts5vk5mL4xi27yHfIFpqdm2JnDXru5Illf7tqtaqbXETKIdcENlkF0c2pkqDWLMzYkwmHXPT3g1H5HU1JLK28JXX51tLsnJ1hSP3ybQPj2Lv0Ud8K09zHatnbYDlyMkY0IBvEy0pnEePQ8cLCzD/4F98G6ksQXIIDa6vnoUNliMxuUqDSBnRxaTFLTsqAheVDNKWnSG31z06oU27g4z8bTW3wWbPJ4E+o4xZj/XnW+Hd4e4vxZQAs4YD8X4fJfaF7cQ9GjgWhBA55IKI9evPo9W7wwWd7mIIykjpTFjcFDgXHoMcbmexoY8cbS345hK0SIuIQoIakFh5wrdTPb49nxIxO/cjpWVv9HV6WS7baoNufTsD4XtwIIOSW3lC5DC/tu3E/pSW6N3XyYQHEXShjJTGdMVNfQ3hp9KhkVjDS+6je5a68io2bI7mypglWgWGYGzrF6KjScTvkamw9epU5iF3ZeoxrPx8Gj5dsAXnsgpXthLpZ3bg65Bp+CRoBr5ccxDXc/inqrl63l5orTyL8OgnfAsxmBA55Lqkib9HItXWC53KCKIpc0gZKclkxe35OId5W/j6Ft0KPqfNQvgXE7DsogQt3vkGOxf1xoujGdqsaJyKZ3ByawOdG9yc3zF78i68MuIT+CTNRM9+c3E25wZ+nDoanx/WwnvM51gwawjMd42GT685iMnjX1eNSR3c0cY2G2ejL3NfDVIZQuQw//noU/FgTm5ooyuIJs4hZaQkkxW3wnEOmVMXyIvNS1P++Qdi9i7HpD7t8fZ6NfyWHkP0tnFwq83/Dzx10g38oaoLB8dGOj/4/f0bcfft2fBv3RzOLV7F04vrETR8LhIHfYu1s4fBp0UD1LF9A2OHeeHpubVYd7x4qjR4fC8Jseei8Nuxc7hdHZIiew0OTYG0pETov13WIv3wAowfMxqjRo0ybBk9BuNDD4lqHEeIHHJBxI0/VKjr4IhGOoJY+RzyNLdxeMEkBG+KL/ssHIMyIm4mKm6F4xwSSB+fwOxBAzBgAL/074d3xodi+yUN2n20BVf+OIsNk7ugUSkDGerUVNyDLRrZ6frYWTh8RIFubzXmfrGnuHbtJjTsMer0C8GsrrYv/LJaPM1TgLFsPPxLw7fx1HHY9VUogob1RC//pThthOKWd/MAQj4MRbiCbyiPrCmaNDSD6s4t3Nb79B4z1GrihDZtXOHqaujSBm2cm6K2iVJifMLkkAsiUu8Bto3sdHyBBMhhoYcnELZ4I45dy+I2u2UwKCMix08JMa7n84osWNelN1kpM4b0khnWl1mae7KQKyq+pRhVPNuwbDe7k/8DFOEsyEnGpM3HskO5z57+Wy77ObApk8pc2aenS5n8qLnJlna1ZLV6r2J3y/mwmruH2ZptsUzHJ3pOnfozWzh5PAsMGM0GetRnZpaD2MYSn0uXXPbjkNpM5jyVRdaguZrVbp6bQDnkgsj6Wpozz5Arpa93oXLIU+Xl6ZhE/KKamRFjMsk2uXCcAzJndPZtrmNrVx4tlAoll3IpzGU6zsaWuWB00BA05X6AJjkc0Ska2HTsDp/i3QrlBRyPyAQa+aBraYfLHkUi4pIWrl18wW0My6S68TO+3naW2z6XTWrXEe9P+xLfrFuLmW82q/DfwMKC+5zKPCiKzUgg+hMmh9z7KBXgeraQmstQahKFyiFPZmmp1xFZykhRhq7fCnk+r8jOG10MPrPYDFZWllyYNFCpylt7WtwPj0Cs2gKv+3ZGXb61kPryIRy9qYVtt/7oVMrhsryYcJx50hw+cifh5tJZ2sLe3pbr4hn2J1cqVVx6a8FKwKtsvGyEySGXRCsrWHLrQaNSFexS6laZHOYi6dgGrAzbg4vPj7SWjTJSlAmK29/jHHXekMNb/ysVllCrQX3UQg6ys8tb2U8QFX4OebLW3Ba6abFfUokLu/fjuuZV9B7SCyWPl6kRG3EKmTbekLe35NuqWi5yctWQ1K2P+vpswgtwX6yIMHwePBVTpkwxbJkajJlrwkVy1QnhcsgFEfVrATnZ2dxfuSyG5jAXMYsn4qtEB7RMCUUPv6W4VuaAWz5DMiJuxi9uz+cVmaMt183TcfBdLzIHRzTDA2RklDNiqjyPk6f/gqQRt4V2LbaFVsRg654EsMYD4N8n/9NokLAsAJ9F8EcOtGmIiEqEzNMXnes8a6py6gxkPNDCwt4RZUyoL8GM20uUSmWQyQxdpJBy72GCLaDxCZhDLohwbAY8yMgo+wimgTnUJKzD6nR/LP53F9TTPMGTW8m4U95BAgMzImr82JvRaG4tZ90tJQz5g6YxlRzpfPgDG2xjwXwWJpY5wKq6+gVrby5h9fw2seKnNCsipzJnmZTZj/uFFYzvqi6zue8EsWOFg70PNzG/euas/Rwdg8XF5P02kbUe/D3L5h+XT8Vi/tuGySpyQOHpfja6oTlrM+OMXp+puqhOBxQEzSGXqh8G2zALn4UssYwgGprD7F9WsLWXuTWdl38wwpw1CzjAcgpeVYYyMqLJOskWDu/Feo9ezk7rH9Qaz8gbZQ1S9v+Ec8r8CzC4w1PnjEc91e0EH3cJEmOvQMesIA7XHYuMQrzaHO18uS0f31qIKfIHXC3RzqcjanOfL3XLN0jo8TG68YO9heNtHeXORcbblBnxiA4Px8mTJ4sskVfT8fRhMqKKtZ88GY7IS6lcZ6HyNDevIj7bFl6d2tAltg0icA5RF5183CFJjMUVnUE0PIc2/SZirIcMOb9+j50p9vAb0QvW/Ot0KSsjf+5ZiDnbjuHoxln430EhElkzGKW4qS9+hcEd2sLD5Z/wmX0e0nr1UVd7BEGve6CdZ0/MiTRw8pjUAd3kLZFzJgqXdL6FGgnXkqGq/Qb69yl5RMyyUwA+ktdDSvhGrPliAmZc6Yf541vyR6MKx9u8IO/w4nibBvcifsA3y7/G8uXLiywr91zGn8lHsKZYe8Gy6hckltedKJcWD7gvybVaPuhe4nAbKYvRcsilxaGbHC1zziBKZxArk0OO9j72b9iHzFb+GOVb3gBh2Rmp7zsEb/2zPuq39oOfT2UGG2sYfg+uxlCdm8k8rNzYZ2d1d9DUmVfZqasZurtwqkwWH3GchcdmsCIdFH5+m1Wvb5/NUdKD8bulmWyT3yus4dAtTPeVx6qn6nuxSgGozrGZHlbM7bOzOnNmcA45mrQ1rJ+NJfP+Mo6puXT9NC2Y7dbZN625GTGmGjdWLGsXiHG+d7BnWwx0TfCXNnRDRzc73V04WUO4dOkB3zZ2Rc9RzY7iupJauHaWw44lY8XkUFyq9J5X5Wjv7sPW31/F8I8GwZZvI9WArB0Cx/nizp5tiNERRINzyFGei8Z5hSf83m0FJG/Gfo0vuuvom1JGSlfjihukLRA47yPU3r4cuzOFnaOgybqD9Kc2cPFwguT6Tpy36Y7iB7kqTwu1Kv8mw2oU/FMmJc6vWo2rvedghpy6pNWLFC0C5+Gj2tuxfHcmt1aFZfHGALzpmIMLW+dh4vx0DPn0raIn7z9HGdGl5hU3jpV3MEIHxmHRwnAIedUiqeMgjHqzHuL3LsHMJXfQI9BL99VHKurRcSz6MAD/GjkUk3dkorbVGSzx88eYgEAEbyz9pGhN8nqEbGuI6fPeQ+MauaZEzsobwaEDEbdoIcIFvnyWWdP3sOHiUcwdOgah677AmzoCQBkpA989rXlyollIt05syvEsw88RLFUuu3c9nqX8pd8F6Ss+5qYnxXW28q32bOS2VIF/P9MR9ZjbczksOqQb6zTlOMsy9YoSQUaMqebWemsfzNoQhMfzJyAsXt/La+ijNhq3csFr9fSbCSm1boAmr9TV69w/vWkzcfjTj3FEvgor/e1r5u51Pq22SHdNyyrYect//Ysv4V4vdPev8qzhM2sDgh7Px4SweJ3jwIITS0aMqEb/TaSvDcWarZNgnZBUarfOFGQd5uLE+iFcSRSO9n4cHnZdie3/8YIN31YTKZOTkPr8tCGGRzeTkV6R6qRKQlLq3y9guSlITiv3PCTTk76GoWu2YpJ1ApJMFESxZMSo+D04QgSUx+6eWscCPayZJL+q8YtE2oT1nL2fXfuz/C6/Iv0M+36cJ6tr9vfr87u2DbvOYLvjHupxCSDyspPk/4cLDiGVl3cQQV2mYl9qGu48eAJ1qcmSwMyiLhrb26PDx1uwe8qLdzFT4Oj0rpi08ybS0u4jt/Q3gERiDpsmDrBvOxaxhz7lWwkpioobEY76MjbP2464/IudlcsMdvLx+KS/wwvjlWrEbv0SW67kFeyqlcfMthO+DH6bf0RIUVTcCCGiRAdZCCGiRMWNECJKVNwIIaJExY0QIkpU3AghokTFjQhOc/swFkwKxqZ4I0zXz7uJAyEfIlTvO1qTlxUVNyK4hyfCsHjjMVzLEuhUKc1tHFwUhAkfBmKM/2CMmr8ZZ25Vw9OwSLVC89yIEaihUEhgaSnU5QQUyLqdCdg2g03sTHh2XoaW3z3EvpF0/TKiG+25ESOQCVjY8lnC1t4etrVFcptBYhKUFSKc3CQc27ASYXsuQs+bpBNiNNQtJcLIjcHiiRtgM3IwUqcPQ9SwaPwW7FJw3qjy3mVEXUmHQu+oSWDewBne3i1K3NJOfWYG2lG3lOiBihsRgAYJXwdiTesVWNojDtPbdcX2rgeRsLoX16HUIHXvHMzelQy9zqcvIIHUtgeClwWibbF7WFBxI/qi4kYEkIPD325D0wlj0erUFLj33AnfPdex/q3ybiVccVTciL5ozI0IwAb9Jo6FhywHv36/Eyn2fhjRS/jCRkhF0J4bEYz2/mYMbRWAhAlRuBj6xvOLUKrv38CFxAdQVaRbWtcRHu5NS1y+nfbciL6ouBGBaHEnbABcJv+J/16Iwmf2hxA8V4X/LRmElO3/wdRNCRU6oCCz64/Z6z5GexpzIwai4kYEkof9ox3wXuI0XI0IhnTteHzbbAmWDSz9VsKGUkYHw73rt3AKy8DPAfX4VkJKouJGBKLF3R0B6D7vKd5/5xWksLexIORNgW4U/AjHF03Dj9cVyIo9ifCEbJg39UR3b0dYv9oN0xaOgmuxPTxCqLgRQT1Jv4GUPDs4OzZ44cYvhJgeFTdCiCjRVBBCiChRcSOEiBIVN0KIKFFxI4SIEhU3QogoUXEjhIgSFTdCiChRcSOEiBIVN0KIKFFxI4SIEhU3QogoUXEjhIgSFTdCiChRcSOEiBIVN0KIKFFxI4SIEPB/I3xjFKwvsVUAAAAASUVORK5CYII=;" vertex="1" parent="1">
          <mxGeometry x="579.26" y="610" width="184.49" height="70" as="geometry" />
        </mxCell>
      </root>
    </mxGraphModel>
  </diagram>
</mxfile>
